<?xml version="1.0" standalone="no"?>
<!DOCTYPE svg PUBLIC "-//W3C//DTD SVG 20010904//EN"
 "http://www.w3.org/TR/2001/REC-SVG-20010904/DTD/svg10.dtd">
<svg version="1.0" xmlns="http://www.w3.org/2000/svg"
 width="1000.220802pt" height="998.344200pt" viewBox="0 0 1000.220802 998.344200"
 preserveAspectRatio="xMidYMid meet">
<metadata>
Created by potrace 1.12, written by Peter Selinger 2001-2015
</metadata>
<g transform="translate(-2.948050,1002.875762) scale(0.100000,-0.100000)"
fill="#000000" stroke="none">
<path d="M4560 10014 c-610 -60 -1165 -216 -1705 -478 -234 -114 -361 -186
-580 -331 -862 -569 -1522 -1384 -1903 -2350 -292 -742 -402 -1584 -311 -2390
165 -1470 977 -2793 2214 -3610 211 -139 340 -214 555 -319 552 -272 1119
-431 1745 -491 214 -20 696 -20 910 0 487 47 931 151 1360 320 225 88 380 160
575 268 1133 621 1984 1648 2375 2867 252 787 305 1663 149 2475 -168 871
-559 1671 -1154 2356 -308 354 -724 707 -1125 954 -669 414 -1388 654 -2180
730 -200 19 -730 18 -925 -1z m460 -429 c0 -277 3 -425 10 -425 7 0 10 148 10
425 l0 425 53 -5 c28 -2 120 -7 202 -10 177 -7 351 -25 565 -61 1556 -258
2905 -1257 3616 -2676 309 -618 487 -1295 520 -1985 l7 -143 -512 0 -511 0 0
50 c0 38 -4 50 -15 50 -11 0 -15 -12 -15 -50 l0 -50 -190 0 -190 0 0 -100 0
-100 190 0 190 0 0 -50 c0 -38 4 -50 15 -50 11 0 15 12 15 50 l0 50 511 0 512
0 -7 -143 c-44 -904 -331 -1774 -836 -2527 -303 -453 -699 -872 -1135 -1201
-590 -445 -1273 -754 -1987 -900 -286 -58 -631 -99 -833 -99 l-70 0 0 322 0
323 -100 0 -100 0 -3 -323 -2 -322 -78 0 c-242 1 -649 54 -957 126 -454 106
-936 296 -1340 529 -902 518 -1636 1329 -2058 2275 -258 576 -399 1168 -432
1813 l-7 127 513 -2 513 -3 -3 -48 c-2 -37 1 -47 13 -47 12 0 16 11 16 50 l0
50 195 0 195 0 0 100 0 100 -195 0 -195 0 0 50 c0 39 -4 50 -16 50 -12 0 -15
-10 -13 -47 l3 -48 -513 -3 -513 -2 7 122 c75 1467 738 2764 1877 3675 403
322 871 586 1371 772 467 174 981 277 1497 300 96 4 183 9 193 9 16 2 17 -24
17 -423z"/>
<path d="M5167 9023 c-7 -15 5 -113 14 -113 12 0 12 107 0 115 -5 3 -11 2 -14
-2z"/>
<path d="M5235 9014 c-37 -38 0 -124 43 -98 35 22 21 114 -18 114 -5 0 -16 -7
-25 -16z m40 -45 c0 -24 -5 -34 -15 -34 -16 0 -25 37 -16 62 10 26 31 8 31
-28z"/>
<path d="M4930 8970 c0 -11 8 -12 58 -12 17 0 32 -4 32 -9 0 -5 -7 -9 -15 -9
-8 0 -15 -4 -15 -10 0 -5 7 -10 15 -10 8 0 15 -4 15 -10 0 -5 -7 -10 -15 -10
-8 0 -15 -4 -15 -10 0 -5 7 -10 15 -10 8 0 15 -4 15 -10 0 -5 -7 -10 -15 -10
-8 0 -15 -4 -15 -10 0 -5 7 -10 15 -10 8 0 15 -4 15 -10 0 -5 -7 -10 -15 -10
-8 0 -15 -4 -15 -10 0 -5 7 -10 15 -10 8 0 15 -4 15 -10 0 -5 -11 -10 -25 -10
-14 0 -25 -4 -25 -10 0 -5 11 -10 25 -10 14 0 25 -4 25 -10 0 -5 -7 -10 -15
-10 -8 0 -15 -4 -15 -10 0 -5 7 -10 15 -10 8 0 15 -4 15 -10 0 -5 -7 -10 -15
-10 -8 0 -15 -4 -15 -10 0 -5 7 -10 15 -10 8 0 15 -4 15 -10 0 -5 -7 -10 -15
-10 -8 0 -15 -4 -15 -10 0 -5 7 -10 15 -10 8 0 15 -4 15 -10 0 -5 -7 -10 -15
-10 -8 0 -15 -4 -15 -10 0 -5 7 -10 15 -10 8 0 15 -4 15 -10 0 -5 -20 -10 -45
-10 -25 0 -45 -4 -45 -10 0 -5 20 -10 45 -10 25 0 45 -4 45 -10 0 -5 -5 -9
-11 -7 -19 4 -21 -21 -2 -26 17 -4 17 -5 1 -6 -10 0 -18 -7 -18 -15 0 -8 8
-17 18 -19 16 -4 16 -5 0 -6 -10 0 -18 -7 -18 -15 0 -8 8 -17 18 -19 16 -4 16
-5 0 -6 -10 0 -18 -5 -18 -11 0 -5 8 -14 18 -19 14 -9 13 -10 -10 -11 -16 0
-28 -4 -28 -10 0 -5 11 -10 25 -10 14 0 25 -4 25 -10 0 -5 -7 -10 -15 -10 -8
0 -15 -4 -15 -10 0 -5 7 -10 15 -10 8 0 15 -4 15 -10 0 -5 -7 -10 -15 -10 -8
0 -15 -4 -15 -10 0 -5 7 -10 15 -10 8 0 15 -4 15 -10 0 -5 -7 -10 -15 -10 -8
0 -15 -4 -15 -10 0 -5 7 -10 15 -10 8 0 15 -4 15 -10 0 -5 -7 -10 -15 -10 -8
0 -15 -4 -15 -10 0 -5 7 -10 15 -10 8 0 15 -4 15 -10 0 -5 -20 -10 -45 -10
-25 0 -45 -4 -45 -10 0 -5 20 -10 45 -10 25 0 45 -4 45 -10 0 -5 -7 -10 -15
-10 -8 0 -15 -4 -15 -10 0 -5 7 -10 15 -10 8 0 15 -4 15 -10 0 -5 -7 -10 -15
-10 -8 0 -15 -4 -15 -10 0 -5 7 -10 15 -10 8 0 15 -4 15 -10 0 -5 -7 -10 -15
-10 -8 0 -15 -4 -15 -10 0 -5 7 -10 15 -10 8 0 15 -4 15 -10 0 -5 -7 -10 -15
-10 -8 0 -15 -4 -15 -10 0 -5 7 -10 15 -10 8 0 15 -4 15 -10 0 -5 -11 -10 -25
-10 -14 0 -25 -4 -25 -10 0 -5 11 -10 25 -10 14 0 25 -4 25 -10 0 -5 -7 -10
-15 -10 -8 0 -15 -4 -15 -10 0 -5 7 -10 15 -10 8 0 15 -4 15 -10 0 -5 -7 -10
-15 -10 -8 0 -15 -4 -15 -10 0 -5 7 -10 15 -10 8 0 15 -4 15 -10 0 -5 -7 -7
-15 -4 -9 4 -15 0 -15 -10 0 -9 8 -16 18 -16 16 -1 16 -1 0 -11 -10 -5 -18
-14 -18 -19 0 -5 8 -11 18 -13 9 -3 -4 -5 -30 -6 -36 -1 -48 -5 -48 -16 0 -11
12 -15 48 -16 26 -1 39 -3 30 -6 -22 -5 -24 -23 -3 -23 8 0 15 -4 15 -10 0 -5
-7 -10 -15 -10 -8 0 -15 -4 -15 -10 0 -5 7 -10 15 -10 8 0 15 -4 15 -10 0 -5
-7 -10 -15 -10 -8 0 -15 -4 -15 -10 0 -5 7 -10 15 -10 8 0 15 -4 15 -10 0 -5
-7 -10 -15 -10 -8 0 -15 -4 -15 -10 0 -5 7 -10 15 -10 8 0 15 -4 15 -10 0 -5
-11 -10 -25 -10 -14 0 -25 -4 -25 -10 0 -5 11 -10 25 -10 14 0 25 -4 25 -10 0
-5 -7 -10 -15 -10 -8 0 -15 -4 -15 -10 0 -5 7 -10 15 -10 8 0 15 -4 15 -10 0
-5 -7 -10 -15 -10 -8 0 -15 -4 -15 -10 0 -5 7 -10 15 -10 8 0 15 -4 15 -10 0
-5 -7 -10 -15 -10 -8 0 -15 -4 -15 -10 0 -5 7 -10 15 -10 8 0 15 -4 15 -10 0
-5 -7 -10 -15 -10 -8 0 -15 -4 -15 -10 0 -5 7 -10 15 -10 8 0 15 -4 15 -10 0
-5 -20 -10 -45 -10 -25 0 -45 -4 -45 -10 0 -5 20 -10 45 -10 25 0 45 -4 45
-10 0 -5 -7 -10 -15 -10 -8 0 -15 -4 -15 -10 0 -5 7 -10 15 -10 8 0 15 -4 15
-10 0 -5 -7 -10 -15 -10 -8 0 -15 -4 -15 -10 0 -5 7 -10 15 -10 8 0 15 -4 15
-10 0 -5 -7 -10 -15 -10 -21 0 -19 -18 3 -23 16 -4 16 -5 0 -6 -10 0 -18 -7
-18 -15 0 -8 8 -17 18 -19 10 -3 6 -5 -11 -6 -34 -1 -32 -22 4 -32 16 -5 18
-7 7 -8 -22 -1 -24 -21 -3 -21 8 0 15 -4 15 -10 0 -5 -7 -10 -15 -10 -8 0 -15
-4 -15 -10 0 -5 7 -10 15 -10 8 0 15 -4 15 -10 0 -5 -7 -10 -15 -10 -8 0 -15
-4 -15 -10 0 -5 7 -10 15 -10 8 0 15 -4 15 -10 0 -5 -7 -10 -15 -10 -8 0 -15
-4 -15 -10 0 -5 7 -10 15 -10 8 0 15 -4 15 -10 0 -5 -20 -10 -45 -10 -25 0
-45 -4 -45 -10 0 -5 20 -10 45 -10 25 0 45 -4 45 -10 0 -5 -7 -10 -15 -10 -8
0 -15 -4 -15 -10 0 -5 7 -10 15 -10 8 0 15 -4 15 -10 0 -5 -7 -10 -15 -10 -8
0 -15 -4 -15 -10 0 -5 7 -10 15 -10 8 0 15 -4 15 -10 0 -5 -7 -10 -15 -10 -8
0 -15 -4 -15 -10 0 -5 7 -10 15 -10 8 0 15 -4 15 -10 0 -5 -7 -10 -15 -10 -8
0 -15 -4 -15 -10 0 -5 7 -10 15 -10 8 0 15 -4 15 -10 0 -5 -11 -10 -25 -10
-14 0 -25 -4 -25 -10 0 -5 11 -10 25 -10 14 0 25 -4 25 -10 0 -5 -7 -10 -15
-10 -8 0 -15 -4 -15 -10 0 -5 7 -10 15 -10 8 0 15 -4 15 -10 0 -5 -7 -10 -15
-10 -8 0 -15 -4 -15 -10 0 -5 7 -10 15 -10 8 0 15 -4 15 -10 0 -5 -7 -10 -15
-10 -8 0 -15 -4 -15 -10 0 -5 7 -10 15 -10 8 0 15 -4 15 -10 0 -5 -7 -7 -15
-4 -9 4 -15 0 -15 -10 0 -9 7 -16 15 -16 8 0 15 -3 15 -8 0 -4 -20 -6 -45 -4
-36 3 -45 1 -45 -12 0 -12 10 -16 45 -16 l45 0 0 -85 c0 -84 0 -85 -25 -85
-14 0 -25 -4 -25 -10 0 -5 11 -10 25 -10 25 0 25 -1 25 -90 l0 -90 -45 0 c-25
0 -45 -4 -45 -10 0 -5 20 -10 45 -10 l45 0 0 -85 c0 -84 0 -85 -25 -85 -16 0
-25 -6 -25 -15 0 -9 9 -15 25 -15 25 0 25 -1 25 -85 l0 -85 -45 0 c-25 0 -45
-4 -45 -10 0 -5 20 -10 45 -10 l45 0 0 -90 c0 -89 0 -90 -25 -90 -14 0 -25 -4
-25 -10 0 -5 11 -10 25 -10 25 0 25 -1 25 -91 l0 -91 -42 3 c-26 2 -43 -1 -46
-9 -2 -8 10 -12 42 -12 l46 0 0 -85 c0 -85 0 -85 -26 -85 -16 0 -24 -5 -21
-12 2 -7 14 -12 25 -10 21 3 22 -1 22 -72 0 -101 18 -109 22 -9 2 61 6 78 18
79 8 1 21 2 28 3 26 2 10 21 -18 21 l-30 0 0 85 0 85 46 0 c32 0 44 4 42 12
-3 8 -20 11 -46 9 l-42 -3 0 91 c0 90 0 91 24 91 14 0 28 5 31 10 4 6 -7 10
-24 10 l-31 0 0 90 0 90 45 0 c25 0 45 5 45 10 0 6 -20 10 -45 10 l-45 0 0 84
c0 83 0 85 25 88 14 2 26 8 26 13 0 6 -12 11 -26 13 -25 3 -25 5 -25 88 l0 84
45 0 c25 0 45 5 45 10 0 6 -20 10 -45 10 l-45 0 0 90 0 90 30 0 c17 0 30 5 30
10 0 6 -13 10 -30 10 l-30 0 0 85 0 85 45 0 c33 0 45 4 45 15 0 11 -12 15 -47
16 -40 0 -44 2 -25 10 25 10 21 29 -6 30 -11 0 -9 4 8 11 l25 10 -25 10 -25
10 25 11 c25 10 25 10 3 14 -13 3 -23 8 -23 13 0 4 10 11 23 15 l22 8 -22 4
c-33 6 -28 23 7 23 17 0 30 5 30 10 0 6 -13 10 -30 10 -35 0 -40 14 -7 25 l22
8 -22 4 c-26 5 -31 23 -8 23 8 0 15 5 15 10 0 6 -7 10 -15 10 -8 0 -15 5 -15
10 0 6 7 10 15 10 8 0 15 5 15 10 0 6 -7 10 -15 10 -23 0 -18 18 8 23 l22 4
-22 8 c-38 12 -26 25 22 25 25 0 45 5 45 10 0 6 -20 10 -45 10 -47 0 -62 15
-22 23 l22 4 -22 8 c-13 4 -23 11 -23 15 0 5 10 11 23 13 l22 4 -22 8 c-13 4
-23 11 -23 15 0 5 10 10 23 13 22 4 22 4 -3 15 l-25 11 23 7 c12 3 22 10 22
15 0 5 -10 10 -22 10 -18 1 -17 3 6 8 17 3 30 11 30 16 0 6 -13 13 -30 16 -16
4 -21 7 -12 8 27 2 31 20 7 29 l-23 9 25 7 24 7 -25 10 -25 11 25 10 25 10
-25 10 -25 10 25 11 c25 10 25 10 3 14 -40 7 -25 23 22 23 25 0 45 5 45 10 0
6 -20 10 -45 10 -48 0 -60 13 -22 25 l22 8 -22 4 c-13 2 -23 8 -23 13 0 4 10
11 23 15 l22 8 -22 4 c-28 5 -30 23 -3 23 11 0 20 5 20 10 0 6 -9 10 -20 10
-11 0 -20 5 -20 10 0 6 9 10 20 10 11 0 20 5 20 10 0 6 -9 10 -20 10 -11 0
-20 5 -20 10 0 6 14 10 31 10 17 0 28 4 24 10 -3 6 -17 10 -31 10 -30 0 -32
17 -1 23 l22 4 -22 8 c-13 4 -23 11 -23 15 0 5 10 10 23 13 22 4 22 4 -3 14
l-25 11 25 10 25 10 -25 10 -25 10 25 10 25 10 -25 10 c-22 10 -20 11 23 11
35 1 47 5 47 16 0 11 -12 15 -47 16 -40 0 -44 2 -25 10 25 10 21 29 -6 30 -12
0 -10 3 6 10 25 10 21 29 -6 30 -12 0 -9 4 8 11 25 11 25 11 3 15 -13 3 -23 8
-23 13 0 4 10 11 23 15 l22 8 -22 4 c-31 6 -29 23 1 23 14 0 28 5 31 10 4 6
-7 10 -24 10 -17 0 -31 5 -31 10 0 6 7 10 15 10 8 0 15 5 15 10 0 6 -7 10 -15
10 -23 0 -18 17 8 25 l22 8 -22 4 c-13 2 -23 8 -23 13 0 4 10 11 23 15 l22 8
-22 4 c-26 5 -31 23 -8 23 8 0 15 5 15 10 0 6 -7 10 -15 10 -8 0 -15 5 -15 10
0 6 20 10 45 10 25 0 45 5 45 10 0 6 -20 10 -45 10 -47 0 -62 15 -22 23 l22 4
-22 8 c-13 4 -23 11 -23 15 0 5 10 11 23 13 l22 4 -22 8 c-26 8 -31 25 -8 25
8 0 15 5 15 10 0 6 -7 10 -15 10 -8 0 -15 5 -15 10 0 6 9 10 20 10 11 0 20 5
20 10 0 6 -9 10 -20 10 -11 0 -20 5 -20 10 0 6 14 10 31 10 17 0 28 4 24 10
-3 6 -17 10 -31 10 -15 0 -23 4 -19 10 4 6 10 8 15 5 5 -3 11 -1 15 5 3 6 -4
14 -17 19 -16 7 -18 10 -6 10 27 1 31 20 6 30 -16 7 -18 10 -6 10 27 1 31 20
7 29 l-23 9 25 7 24 7 -25 12 c-24 11 -22 12 23 15 60 4 62 22 2 22 -48 0 -60
13 -22 24 l22 7 -25 11 c-25 11 -25 11 -2 15 27 5 29 23 2 23 -27 0 -25 16 3
25 l22 8 -22 4 c-13 2 -23 8 -23 13 0 4 10 11 23 15 l22 8 -22 4 c-33 6 -28
23 7 23 17 0 30 5 30 10 0 6 -13 10 -30 10 -16 0 -30 5 -30 10 0 6 9 10 20 10
11 0 20 5 20 10 0 6 -9 10 -20 10 -11 0 -20 5 -20 10 0 6 9 10 20 10 11 0 20
5 20 10 0 6 -9 10 -20 10 -27 0 -25 18 3 23 l22 4 -22 8 c-13 4 -23 11 -23 15
0 5 10 10 23 13 22 4 22 4 -3 14 -20 9 -22 12 -9 17 9 4 20 6 25 5 23 -4 54 2
54 11 0 6 -40 10 -100 10 -60 0 -100 -4 -100 -10z"/>
<path d="M5204 8228 c-5 -7 -10 -32 -11 -55 -3 -38 -1 -43 23 -49 32 -8 60 16
49 43 -4 10 -8 29 -9 43 -1 28 -38 41 -52 18z m36 -16 c0 -13 -12 -22 -22 -16
-10 6 -1 24 13 24 5 0 9 -4 9 -8z m3 -57 c1 -5 -6 -11 -15 -13 -11 -2 -18 3
-18 13 0 17 30 18 33 0z"/>
<path d="M5212 7414 c-26 -39 -26 -61 0 -78 14 -8 22 -6 40 11 21 21 21 23 4
42 -11 13 -15 27 -11 40 10 33 -8 24 -33 -15z m28 -50 c0 -16 -16 -19 -25 -4
-8 13 4 32 16 25 5 -4 9 -13 9 -21z"/>
<path d="M5216 6620 c-32 -48 -32 -50 -2 -50 13 0 27 -6 29 -12 7 -18 29 12
22 30 -3 8 -5 27 -5 43 0 39 -12 36 -44 -11z"/>
<path d="M5208 5869 c-19 -11 -25 -39 -8 -39 6 0 10 5 10 10 0 6 9 10 20 10
27 0 25 -10 -10 -48 -16 -18 -30 -35 -30 -38 0 -2 18 -4 40 -4 22 0 40 5 40
10 0 6 -9 10 -21 10 l-20 0 20 26 c25 32 26 38 5 58 -18 19 -23 19 -46 5z"/>
<path d="M3838 5403 c-10 -3 -18 -11 -18 -19 0 -11 6 -13 20 -9 22 7 28 -10 8
-19 -9 -3 -8 -8 5 -16 9 -6 17 -15 17 -20 0 -15 -38 -12 -43 3 -2 6 -7 9 -11
6 -10 -9 3 -37 20 -43 9 -3 24 -1 35 4 15 9 18 19 15 51 -4 45 -22 68 -48 62z"/>
<path d="M4227 5399 c-9 -6 -17 -17 -17 -24 0 -20 10 -19 26 3 12 16 13 16 20
-1 4 -13 -2 -27 -20 -46 -34 -36 -33 -41 9 -41 19 0 35 5 35 10 0 6 -7 10 -17
10 -15 0 -15 1 0 18 35 38 6 94 -36 71z"/>
<path d="M5796 5394 c-18 -18 -21 -34 -6 -34 6 0 10 5 10 10 0 6 9 10 20 10
28 0 25 -14 -11 -55 l-31 -35 41 0 c23 0 41 5 41 10 0 6 -9 10 -20 10 -20 0
-20 0 1 30 22 29 22 30 4 50 -22 24 -29 25 -49 4z"/>
<path d="M6192 5398 c-18 -18 -14 -30 8 -23 11 4 20 2 20 -4 0 -6 -4 -11 -10
-11 -5 0 -10 -4 -10 -10 0 -5 7 -10 15 -10 8 0 15 -7 15 -15 0 -18 -36 -20
-43 -2 -2 6 -7 9 -11 6 -10 -9 3 -37 20 -43 9 -3 24 -1 35 4 15 8 18 19 15 50
-3 37 -20 70 -35 70 -4 0 -12 -5 -19 -12z"/>
<path d="M3446 5362 c-32 -47 -32 -52 -2 -52 13 0 27 -6 29 -12 7 -18 29 12
22 30 -3 8 -5 27 -5 43 0 39 -12 37 -44 -9z"/>
<path d="M4620 5390 c0 -5 5 -10 10 -10 6 0 10 -20 10 -45 0 -25 5 -45 10 -45
6 0 10 25 10 55 0 48 -2 55 -20 55 -11 0 -20 -4 -20 -10z"/>
<path d="M5414 5384 c3 -9 6 -33 6 -55 0 -21 5 -39 10 -39 6 0 10 25 10 55 0
44 -3 55 -16 55 -11 0 -14 -5 -10 -16z"/>
<path d="M6598 5368 c-33 -43 -35 -58 -9 -58 11 0 21 -6 24 -12 3 -9 9 -7 20
7 8 11 12 22 7 25 -5 3 -10 21 -12 39 l-3 35 -27 -36z"/>
<path d="M1860 5295 c-6 -8 -10 -20 -7 -27 2 -7 0 -22 -6 -32 -8 -16 -5 -23
13 -38 35 -28 60 -9 59 45 -2 62 -30 87 -59 52z m31 -28 c-13 -13 -26 -3 -16
12 3 6 11 8 17 5 6 -4 6 -10 -1 -17z m9 -42 c0 -8 -6 -15 -14 -15 -17 0 -28
14 -19 24 12 12 33 6 33 -9z"/>
<path d="M8157 5296 c-8 -8 -13 -32 -13 -58 1 -37 4 -43 24 -46 36 -5 52 14
48 60 -5 53 -31 72 -59 44z m36 -71 c1 -5 -6 -11 -15 -13 -11 -2 -18 3 -18 13
0 17 30 18 33 0z"/>
<path d="M2651 5264 c-19 -27 -22 -40 -14 -52 14 -22 53 -22 67 1 9 15 7 22
-12 37 -13 11 -18 21 -12 25 5 3 10 10 10 16 0 19 -16 8 -39 -27z m34 -33 c7
-12 -12 -24 -25 -16 -11 7 -4 25 10 25 5 0 11 -4 15 -9z"/>
<path d="M7371 5263 c-27 -42 -20 -66 22 -71 33 -4 47 31 22 59 -15 15 -15 21
-5 34 10 12 10 15 -1 15 -8 0 -25 -17 -38 -37z m34 -32 c7 -12 -12 -24 -25
-16 -11 7 -4 25 10 25 5 0 11 -4 15 -9z"/>
<path d="M3450 5135 c0 -57 -4 -95 -10 -95 -5 0 -10 7 -10 15 0 8 -4 15 -10
15 -5 0 -10 -7 -10 -15 0 -8 -4 -15 -10 -15 -5 0 -10 7 -10 15 0 8 -4 15 -10
15 -5 0 -10 -7 -10 -15 0 -8 -4 -15 -10 -15 -5 0 -10 7 -10 15 0 8 -4 15 -10
15 -5 0 -10 -7 -10 -15 0 -8 -4 -15 -10 -15 -5 0 -10 7 -10 15 0 8 -4 15 -10
15 -5 0 -10 -7 -10 -15 0 -8 -4 -15 -10 -15 -5 0 -10 11 -10 25 0 14 -4 25
-10 25 -5 0 -10 -11 -10 -25 0 -14 -4 -25 -10 -25 -5 0 -10 7 -10 15 0 8 -4
15 -10 15 -5 0 -10 -7 -10 -15 0 -8 -4 -15 -10 -15 -5 0 -10 7 -10 15 0 8 -4
15 -10 15 -5 0 -10 -7 -10 -15 0 -8 -4 -15 -10 -15 -5 0 -10 7 -10 15 0 8 -4
15 -10 15 -5 0 -10 -7 -10 -15 0 -8 -4 -15 -10 -15 -5 0 -10 7 -10 15 0 8 -4
15 -10 15 -5 0 -10 -7 -10 -15 0 -8 -3 -15 -8 -15 -4 0 -6 20 -4 45 3 36 1 45
-12 45 -12 0 -16 -11 -17 -47 -1 -27 -3 -40 -6 -30 -2 9 -11 17 -18 17 -7 0
-16 -8 -18 -17 -4 -17 -5 -17 -6 0 0 9 -7 17 -15 17 -8 0 -17 -8 -19 -17 -4
-17 -5 -17 -6 0 -1 21 -21 23 -21 2 0 -8 -4 -15 -10 -15 -5 0 -10 7 -10 15 0
8 -4 15 -10 15 -5 0 -10 -7 -10 -15 0 -8 -4 -15 -10 -15 -5 0 -10 11 -10 25 0
14 -4 25 -10 25 -5 0 -10 -11 -10 -25 0 -14 -4 -25 -10 -25 -5 0 -10 7 -10 15
0 8 -4 15 -10 15 -5 0 -10 -7 -10 -15 0 -8 -4 -15 -10 -15 -5 0 -10 7 -10 15
0 8 -4 15 -10 15 -5 0 -10 -7 -10 -15 0 -8 -4 -15 -10 -15 -5 0 -10 7 -10 15
0 8 -4 15 -10 15 -5 0 -10 -7 -10 -15 0 -8 -4 -15 -10 -15 -5 0 -10 7 -10 15
0 8 -4 15 -10 15 -5 0 -10 -7 -10 -15 0 -8 -4 -15 -10 -15 -5 0 -10 20 -10 45
0 25 -4 45 -10 45 -5 0 -10 -20 -10 -45 0 -25 -4 -45 -10 -45 -5 0 -10 7 -10
15 0 8 -4 15 -10 15 -5 0 -10 -7 -10 -15 0 -8 -4 -15 -10 -15 -5 0 -10 7 -10
15 0 8 -4 15 -10 15 -5 0 -10 -7 -10 -15 0 -8 -4 -15 -10 -15 -5 0 -10 7 -10
15 0 8 -4 15 -10 15 -5 0 -10 -7 -10 -15 0 -8 -4 -15 -10 -15 -5 0 -10 7 -10
15 0 8 -4 15 -10 15 -5 0 -10 -7 -10 -15 0 -8 -5 -15 -11 -15 -7 0 -9 10 -7
25 4 17 1 25 -8 25 -8 0 -14 -11 -14 -25 0 -14 -4 -25 -10 -25 -5 0 -7 7 -4
15 4 9 0 15 -9 15 -9 0 -18 -8 -20 -17 -4 -17 -5 -17 -6 0 0 9 -7 17 -15 17
-8 0 -17 -8 -19 -17 -4 -17 -5 -17 -6 0 0 9 -8 17 -17 17 -10 0 -14 -6 -10
-15 3 -8 1 -15 -4 -15 -6 0 -10 7 -10 15 0 8 -4 15 -10 15 -5 0 -10 -7 -10
-15 0 -8 -4 -15 -10 -15 -5 0 -10 20 -10 45 0 25 -4 45 -10 45 -11 0 -14 -19
-11 -62 1 -16 -3 -28 -8 -28 -6 0 -11 7 -11 15 0 8 -4 15 -10 15 -5 0 -10 -7
-10 -15 0 -8 -4 -15 -10 -15 -5 0 -10 7 -10 15 0 8 -4 15 -10 15 -5 0 -10 -7
-10 -15 0 -8 -4 -15 -10 -15 -5 0 -10 7 -10 15 0 8 -4 15 -10 15 -5 0 -10 -7
-10 -15 0 -23 -17 -18 -25 8 l-8 22 -4 -22 c-6 -31 -23 -29 -23 2 0 14 -4 25
-10 25 -5 0 -10 -11 -10 -25 0 -14 -4 -25 -10 -25 -5 0 -10 7 -10 15 0 8 -4
15 -10 15 -5 0 -10 -7 -10 -15 0 -8 -4 -15 -10 -15 -5 0 -10 7 -10 15 0 8 -4
15 -10 15 -5 0 -10 -7 -10 -15 0 -8 -4 -15 -10 -15 -5 0 -10 7 -10 15 0 8 -4
15 -10 15 -5 0 -10 -7 -10 -15 0 -8 -4 -15 -10 -15 -5 0 -10 7 -10 15 0 8 -4
15 -10 15 -5 0 -10 -7 -10 -15 0 -8 -4 -15 -10 -15 -5 0 -10 20 -10 45 0 25
-4 45 -10 45 -6 0 -10 -40 -10 -100 0 -60 4 -100 10 -100 6 0 10 20 10 45 0
25 5 45 10 45 6 0 10 -7 10 -15 0 -8 5 -15 10 -15 6 0 10 7 10 15 0 8 5 15 10
15 6 0 10 -7 10 -15 0 -8 5 -15 10 -15 6 0 10 7 10 15 0 8 5 15 10 15 6 0 10
-7 10 -15 0 -8 5 -15 10 -15 6 0 10 7 10 15 0 8 5 15 10 15 6 0 10 -7 10 -15
0 -8 5 -15 10 -15 6 0 10 7 10 15 0 8 5 15 10 15 6 0 10 -11 10 -25 0 -14 5
-25 10 -25 6 0 10 11 10 25 0 14 5 25 10 25 6 0 10 -7 10 -15 0 -8 5 -15 10
-15 6 0 10 7 10 15 0 8 5 15 10 15 6 0 10 -7 10 -15 0 -8 5 -15 10 -15 6 0 10
7 10 15 0 8 5 15 10 15 6 0 10 -7 10 -15 0 -8 5 -15 10 -15 6 0 10 7 10 15 0
8 5 15 10 15 6 0 10 -7 10 -15 0 -8 5 -15 10 -15 6 0 10 7 10 15 0 8 4 15 9
15 4 0 9 -15 9 -32 0 -52 1 -58 12 -58 6 0 10 20 10 45 0 25 5 45 10 45 6 0
10 -7 10 -15 0 -21 18 -19 23 3 4 16 5 16 6 0 0 -10 7 -18 15 -18 8 0 17 8 19
18 4 16 5 16 6 0 0 -10 7 -18 15 -18 8 0 17 8 19 18 4 16 5 16 6 0 0 -10 8
-18 17 -18 10 0 14 6 10 15 -3 8 -1 15 4 15 6 0 10 -11 10 -25 0 -14 5 -25 10
-25 6 0 10 11 10 25 0 14 5 25 10 25 6 0 10 -7 10 -15 0 -8 5 -15 10 -15 6 0
10 7 10 15 0 8 5 15 10 15 6 0 10 -7 10 -15 0 -8 5 -15 10 -15 6 0 10 7 10 15
0 8 5 15 10 15 6 0 10 -7 10 -15 0 -8 5 -15 10 -15 6 0 10 7 10 15 0 8 5 15
10 15 6 0 10 -7 10 -15 0 -8 5 -15 10 -15 6 0 10 7 10 15 0 8 5 15 10 15 6 0
10 -20 10 -45 0 -25 5 -45 10 -45 6 0 10 20 10 45 0 25 5 45 10 45 6 0 10 -7
10 -15 0 -8 5 -15 10 -15 6 0 10 7 10 15 0 8 5 15 10 15 6 0 10 -7 10 -15 0
-8 5 -15 10 -15 6 0 10 7 10 15 0 8 5 15 10 15 6 0 10 -7 10 -15 0 -8 5 -15
10 -15 6 0 10 7 10 15 0 8 5 15 10 15 6 0 10 -7 10 -15 0 -8 5 -15 10 -15 6 0
10 7 10 15 0 8 5 15 10 15 6 0 10 -6 9 -12 -3 -24 1 -38 11 -38 6 0 10 11 10
25 0 14 5 25 10 25 6 0 10 -7 10 -15 0 -8 5 -15 10 -15 6 0 10 7 10 15 0 8 5
15 10 15 6 0 10 -7 10 -15 0 -21 18 -19 23 3 4 16 5 16 6 0 0 -10 7 -18 15
-18 8 0 17 8 19 18 4 16 5 16 6 0 0 -10 7 -18 15 -18 8 0 17 8 19 18 3 9 5 -4
6 -30 1 -36 5 -48 16 -48 11 0 15 12 16 48 1 26 3 39 6 30 5 -22 23 -24 23 -3
0 8 5 15 10 15 6 0 10 -7 10 -15 0 -8 5 -15 10 -15 6 0 10 7 10 15 0 8 5 15
10 15 6 0 10 -7 10 -15 0 -8 5 -15 10 -15 6 0 10 7 10 15 0 8 5 15 10 15 6 0
10 -7 10 -15 0 -8 5 -15 10 -15 6 0 10 7 10 15 0 8 5 15 10 15 6 0 10 -11 10
-25 0 -14 5 -25 10 -25 6 0 10 11 10 25 0 14 5 25 10 25 6 0 10 -7 10 -15 0
-8 5 -15 10 -15 6 0 10 7 10 15 0 8 5 15 10 15 6 0 10 -7 10 -15 0 -8 5 -15
10 -15 6 0 10 7 10 15 0 8 5 15 10 15 6 0 10 -7 10 -15 0 -8 5 -15 10 -15 6 0
10 7 10 15 0 8 5 15 10 15 6 0 10 -7 10 -15 0 -8 5 -15 10 -15 6 0 10 7 10 15
0 8 4 15 8 15 4 0 6 -43 4 -95 -4 -83 -2 -95 12 -95 14 0 16 14 16 95 l0 95
85 0 85 0 0 -55 c0 -44 3 -55 16 -55 14 0 16 9 12 55 l-5 55 89 0 88 0 0 -96
c0 -70 3 -95 12 -92 8 3 12 33 11 96 l-1 92 88 0 89 0 -6 -55 c-5 -47 -3 -55
11 -55 13 0 16 11 16 55 l0 55 85 0 85 0 0 -95 c0 -80 2 -95 16 -95 14 0 15
13 12 95 l-3 95 88 0 87 0 0 -56 c0 -40 3 -54 13 -51 8 3 12 22 11 56 l-2 51
87 0 87 0 -4 -95 c-4 -83 -2 -95 12 -95 14 0 16 14 16 95 l0 95 85 0 85 0 0
-55 c0 -42 3 -55 15 -55 12 0 15 13 15 55 l0 55 75 0 c43 0 75 4 75 10 0 6 -9
10 -20 10 -17 0 -20 7 -20 45 0 25 -4 45 -10 45 -5 0 -10 -20 -10 -45 0 -44
-1 -45 -31 -45 -25 0 -30 4 -29 23 4 42 0 67 -10 67 -5 0 -10 -20 -10 -45 0
-42 -2 -45 -28 -45 -26 0 -27 2 -24 45 3 37 1 45 -13 45 -14 0 -16 -8 -13 -45
3 -43 2 -45 -24 -45 -26 0 -28 3 -28 45 0 25 -4 45 -10 45 -5 0 -10 -20 -10
-45 0 -43 -1 -45 -30 -45 l-30 0 0 95 c0 57 -4 95 -10 95 -11 0 -12 -6 -10
-112 l1 -78 -30 0 c-30 0 -31 1 -31 45 0 25 -4 45 -10 45 -5 0 -10 -20 -10
-45 0 -43 -1 -45 -30 -45 -29 0 -30 2 -30 45 0 25 -4 45 -10 45 -5 0 -10 -20
-10 -45 0 -43 -1 -45 -30 -45 -29 0 -30 2 -30 45 0 25 -4 45 -10 45 -5 0 -10
-20 -10 -45 0 -43 -1 -45 -30 -45 -29 0 -30 2 -30 45 0 25 -4 45 -10 45 -5 0
-10 -20 -10 -45 0 -43 -1 -45 -28 -45 l-28 0 0 92 c1 64 -3 93 -11 95 -10 4
-13 -19 -13 -91 0 -96 0 -96 -25 -96 -23 0 -25 4 -25 45 0 33 -4 45 -15 45
-11 0 -14 -11 -12 -45 3 -43 2 -45 -25 -45 -26 0 -28 2 -28 45 0 25 -4 45 -10
45 -5 0 -10 -20 -10 -45 0 -43 -1 -45 -30 -45 -29 0 -30 2 -30 45 0 25 -4 45
-10 45 -5 0 -10 -20 -10 -45 0 -43 -1 -45 -30 -45 -29 0 -30 2 -30 45 0 25 -4
45 -10 45 -5 0 -10 -20 -10 -45 0 -43 -1 -45 -30 -45 l-30 0 0 95 c0 57 -4 95
-10 95 -6 0 -10 -38 -10 -95 l0 -95 -30 0 c-29 0 -30 2 -30 45 0 25 -4 45 -10
45 -5 0 -10 -20 -10 -45 0 -43 -1 -45 -30 -45 -29 0 -30 2 -30 45 0 25 -4 45
-10 45 -5 0 -10 -20 -10 -45 0 -42 -2 -45 -27 -45 -26 0 -28 3 -28 42 0 24 -5
43 -12 45 -9 3 -13 -9 -13 -41 0 -42 -2 -46 -25 -46 -23 0 -25 4 -25 45 0 32
-4 45 -14 45 -11 0 -14 -12 -12 -45 2 -43 1 -45 -26 -45 l-28 0 0 95 c0 57 -4
95 -10 95 -6 0 -10 -38 -10 -95z"/>
<path d="M5412 5135 l3 -95 -27 0 c-26 0 -28 3 -28 45 0 25 -4 45 -10 45 -5 0
-10 -20 -10 -45 0 -43 -1 -45 -30 -45 -29 0 -30 2 -30 46 0 32 -4 44 -12 42
-8 -3 -11 -20 -9 -46 2 -41 2 -42 -28 -42 -30 0 -31 1 -31 45 0 25 -4 45 -10
45 -5 0 -10 -20 -10 -45 0 -43 -1 -45 -30 -45 -29 0 -30 2 -30 45 0 25 -4 45
-10 45 -5 0 -10 -20 -10 -45 0 -33 -4 -45 -15 -45 -8 0 -15 -4 -15 -10 0 -6
31 -10 74 -10 l75 0 -6 -55 c-5 -47 -3 -55 11 -55 13 0 16 11 16 55 l0 55 85
0 85 0 0 -95 c0 -78 3 -95 15 -95 12 0 15 17 15 95 l0 95 85 0 85 0 0 -56 c0
-40 3 -54 13 -51 8 3 11 22 10 56 l-2 51 87 0 88 0 -4 -95 c-4 -83 -2 -95 12
-95 14 0 16 14 16 95 l0 95 85 0 85 0 0 -55 c0 -42 3 -55 15 -55 12 0 15 13
15 55 l0 55 85 0 85 0 0 -95 c0 -81 2 -95 16 -95 14 0 16 12 12 95 l-4 95 87
0 88 0 -6 -55 c-5 -47 -3 -55 11 -55 13 0 16 11 16 55 l0 55 85 0 85 0 0 -95
c0 -78 3 -95 15 -95 12 0 15 18 16 98 1 53 3 89 6 80 2 -10 11 -18 20 -18 9 0
13 6 9 15 -3 8 -1 15 4 15 6 0 10 -7 10 -15 0 -8 5 -15 10 -15 6 0 10 7 10 15
0 8 5 15 10 15 6 0 10 -7 10 -15 0 -8 5 -15 10 -15 6 0 10 7 10 15 0 8 5 15
10 15 6 0 10 -7 10 -15 0 -8 5 -15 10 -15 6 0 10 7 10 15 0 8 5 15 10 15 6 0
10 -11 10 -25 0 -14 5 -25 10 -25 6 0 10 11 10 25 0 14 5 25 10 25 6 0 10 -7
10 -15 0 -8 5 -15 10 -15 6 0 10 7 10 15 0 8 5 15 10 15 6 0 10 -7 10 -15 0
-8 5 -15 10 -15 6 0 10 7 10 15 0 8 5 15 10 15 6 0 10 -7 10 -15 0 -8 5 -15
10 -15 6 0 10 7 10 15 0 8 5 15 10 15 6 0 10 -7 10 -15 0 -8 5 -15 10 -15 6 0
10 7 10 15 0 8 5 15 10 15 6 0 10 -20 10 -45 0 -25 5 -45 10 -45 6 0 10 20 10
45 0 25 5 45 10 45 6 0 10 -7 10 -15 0 -8 5 -15 10 -15 6 0 10 7 10 15 0 8 5
15 10 15 6 0 10 -7 10 -15 0 -8 5 -15 10 -15 6 0 10 7 10 15 0 8 5 15 10 15 6
0 10 -7 10 -15 0 -8 5 -15 10 -15 6 0 10 7 10 15 0 8 4 15 10 15 5 0 7 -7 4
-15 -4 -9 0 -15 10 -15 9 0 16 7 16 15 0 8 4 15 9 15 4 0 6 -11 3 -25 -3 -18
0 -25 12 -25 11 0 16 9 17 28 1 16 3 20 6 10 5 -22 23 -24 23 -3 0 8 5 15 10
15 6 0 10 -7 10 -15 0 -8 5 -15 10 -15 6 0 10 7 10 15 0 8 5 15 10 15 6 0 10
-7 10 -15 0 -8 5 -15 10 -15 6 0 10 7 10 15 0 8 5 15 10 15 6 0 10 -7 10 -15
0 -8 5 -15 10 -15 6 0 10 7 10 15 0 8 5 15 10 15 6 0 10 -20 10 -45 0 -25 5
-45 10 -45 6 0 10 20 10 45 0 25 5 45 10 45 6 0 10 -7 10 -15 0 -8 5 -15 10
-15 6 0 10 7 10 15 0 8 5 15 10 15 6 0 10 -7 10 -15 0 -8 5 -15 10 -15 6 0 10
7 10 15 0 8 5 15 10 15 6 0 10 -7 10 -15 0 -8 5 -15 10 -15 6 0 10 7 10 15 0
8 5 15 10 15 6 0 10 -7 10 -15 0 -8 5 -15 10 -15 6 0 10 7 10 15 0 8 5 15 10
15 6 0 10 -11 10 -25 0 -14 5 -25 10 -25 6 0 10 11 10 25 0 14 5 25 10 25 6 0
10 -7 10 -15 0 -8 5 -15 10 -15 6 0 10 7 10 15 0 8 5 15 10 15 6 0 10 -7 10
-15 0 -8 5 -15 10 -15 6 0 10 7 10 15 0 8 5 15 10 15 6 0 10 -7 10 -15 0 -21
18 -19 23 3 4 16 5 16 6 0 0 -10 7 -18 15 -18 8 0 17 8 19 18 3 9 5 -4 6 -30
1 -37 5 -48 17 -48 13 0 15 9 12 45 -2 25 0 45 4 45 5 0 8 -7 8 -15 0 -8 7
-15 16 -15 10 0 14 6 10 15 -3 8 -1 15 4 15 6 0 10 -7 10 -15 0 -8 5 -15 10
-15 6 0 10 7 10 15 0 8 5 15 10 15 6 0 10 -7 10 -15 0 -8 5 -15 10 -15 6 0 10
7 10 15 0 8 5 15 10 15 6 0 10 -7 10 -15 0 -8 5 -15 10 -15 6 0 10 7 10 15 0
8 5 15 10 15 6 0 10 -11 10 -25 0 -14 5 -25 10 -25 6 0 10 11 10 25 0 14 5 25
10 25 6 0 10 -7 10 -15 0 -8 5 -15 10 -15 6 0 10 7 10 15 0 8 5 15 10 15 6 0
10 -7 10 -15 0 -8 5 -15 10 -15 6 0 10 7 10 15 0 8 5 15 10 15 6 0 10 -7 10
-15 0 -8 5 -15 10 -15 6 0 10 7 10 15 0 8 5 15 10 15 6 0 10 -7 10 -15 0 -8 5
-15 10 -15 6 0 10 7 10 15 0 8 5 15 10 15 6 0 10 -20 10 -45 0 -25 5 -45 10
-45 6 0 10 40 10 100 0 60 -4 100 -10 100 -5 0 -10 -20 -10 -45 0 -25 -4 -45
-10 -45 -5 0 -10 7 -10 15 0 8 -4 15 -10 15 -5 0 -10 -7 -10 -15 0 -8 -4 -15
-10 -15 -5 0 -10 7 -10 15 0 8 -4 15 -10 15 -5 0 -10 -7 -10 -15 0 -8 -4 -15
-10 -15 -5 0 -10 7 -10 15 0 8 -4 15 -10 15 -5 0 -10 -7 -10 -15 0 -8 -4 -15
-10 -15 -5 0 -10 7 -10 15 0 8 -4 15 -10 15 -5 0 -10 -7 -10 -15 0 -8 -4 -15
-10 -15 -5 0 -10 11 -10 25 0 14 -4 25 -10 25 -5 0 -10 -11 -10 -25 0 -31 -17
-33 -23 -2 l-4 22 -8 -22 c-8 -26 -25 -31 -25 -8 0 8 -4 15 -10 15 -5 0 -10
-7 -10 -15 0 -8 -4 -15 -10 -15 -5 0 -10 7 -10 15 0 8 -4 15 -10 15 -5 0 -10
-7 -10 -15 0 -8 -4 -15 -10 -15 -5 0 -7 7 -4 15 4 9 0 15 -10 15 -9 0 -16 -7
-16 -15 0 -8 -3 -15 -8 -15 -4 0 -6 20 -4 45 3 36 1 45 -12 45 -12 0 -16 -11
-17 -47 -1 -27 -3 -40 -6 -30 -2 9 -11 17 -20 17 -9 0 -13 -6 -9 -15 3 -8 1
-15 -4 -15 -6 0 -10 7 -10 15 0 8 -7 15 -15 15 -9 0 -12 -6 -9 -15 4 -8 1 -15
-5 -15 -6 0 -11 7 -11 15 0 8 -4 15 -10 15 -5 0 -10 -7 -10 -15 0 -8 -4 -15
-10 -15 -5 0 -10 7 -10 15 0 8 -4 15 -10 15 -5 0 -10 -7 -10 -15 0 -8 -4 -15
-10 -15 -5 0 -10 11 -10 25 0 14 -4 25 -10 25 -5 0 -10 -11 -10 -25 0 -14 -4
-25 -10 -25 -5 0 -10 7 -10 15 0 8 -4 15 -10 15 -5 0 -10 -7 -10 -15 0 -8 -4
-15 -10 -15 -5 0 -10 7 -10 15 0 8 -4 15 -10 15 -5 0 -10 -7 -10 -15 0 -8 -4
-15 -10 -15 -5 0 -10 7 -10 15 0 8 -4 15 -10 15 -5 0 -10 -7 -10 -15 0 -8 -4
-15 -10 -15 -5 0 -10 7 -10 15 0 8 -4 15 -10 15 -5 0 -10 -7 -10 -15 0 -8 -4
-15 -10 -15 -5 0 -10 20 -10 45 0 25 -4 45 -10 45 -5 0 -10 -20 -10 -45 0 -25
-4 -45 -10 -45 -5 0 -10 7 -10 15 0 8 -4 15 -10 15 -5 0 -10 -7 -10 -15 0 -8
-4 -15 -10 -15 -5 0 -10 7 -10 15 0 8 -4 15 -10 15 -5 0 -10 -7 -10 -15 0 -8
-4 -15 -10 -15 -5 0 -10 7 -10 15 0 8 -4 15 -10 15 -5 0 -10 -7 -10 -15 0 -8
-5 -15 -10 -15 -6 0 -9 5 -8 11 5 19 -20 21 -25 2 -3 -12 -5 -8 -6 10 -1 17
-7 27 -16 27 -9 0 -15 -10 -16 -27 -1 -17 -3 -21 -6 -10 -2 9 -11 17 -18 17
-7 0 -16 -8 -18 -17 -4 -17 -5 -17 -6 0 -1 21 -21 23 -21 2 0 -8 -4 -15 -10
-15 -5 0 -10 7 -10 15 0 8 -4 15 -10 15 -5 0 -10 -7 -10 -15 0 -8 -4 -15 -10
-15 -5 0 -10 7 -10 15 0 8 -4 15 -10 15 -5 0 -10 -7 -10 -15 0 -8 -4 -15 -10
-15 -5 0 -10 20 -10 45 0 25 -4 45 -10 45 -5 0 -10 -20 -10 -45 0 -25 -4 -45
-10 -45 -5 0 -10 7 -10 15 0 8 -4 15 -10 15 -5 0 -10 -7 -10 -15 0 -8 -4 -15
-10 -15 -5 0 -10 7 -10 15 0 8 -4 15 -10 15 -5 0 -10 -7 -10 -15 0 -8 -4 -15
-10 -15 -5 0 -10 7 -10 15 0 8 -4 15 -10 15 -5 0 -10 -7 -10 -15 0 -8 -4 -15
-10 -15 -5 0 -10 7 -10 15 0 8 -4 15 -10 15 -5 0 -10 -7 -10 -15 0 -8 -4 -15
-10 -15 -5 0 -10 11 -10 25 0 14 -4 25 -10 25 -5 0 -10 -11 -10 -25 0 -31 -17
-33 -23 -2 l-4 22 -8 -22 c-8 -26 -25 -31 -25 -8 0 8 -4 15 -10 15 -5 0 -10
-7 -10 -15 0 -8 -5 -15 -11 -15 -6 0 -9 7 -5 15 3 9 0 15 -9 15 -8 0 -15 -7
-15 -15 0 -8 -4 -15 -10 -15 -5 0 -9 5 -7 11 4 19 -21 21 -26 2 -3 -10 -5 26
-6 80 -1 79 -4 97 -16 97 -12 0 -15 -17 -15 -95 0 -95 0 -95 -25 -95 -23 0
-25 4 -25 45 0 32 -4 45 -14 45 -10 0 -13 -13 -12 -45 1 -43 0 -45 -26 -45
-26 0 -28 3 -28 45 0 25 -4 45 -10 45 -5 0 -10 -20 -10 -45 0 -43 -1 -45 -30
-45 -29 0 -30 2 -30 45 0 25 -4 45 -10 45 -5 0 -10 -20 -10 -45 0 -43 -1 -45
-30 -45 -29 0 -30 2 -30 45 0 25 -4 45 -10 45 -5 0 -10 -20 -10 -45 0 -43 -1
-45 -30 -45 l-30 0 0 95 c0 57 -4 95 -10 95 -6 0 -10 -38 -10 -95 l0 -95 -30
0 c-29 0 -30 2 -30 45 0 25 -4 45 -10 45 -5 0 -10 -20 -10 -45 0 -43 -1 -45
-29 -45 -28 0 -28 1 -25 45 3 35 1 45 -11 45 -11 0 -15 -12 -15 -45 0 -41 -2
-45 -25 -45 -23 0 -25 4 -25 46 0 32 -4 44 -12 42 -8 -3 -13 -22 -13 -46 0
-39 -1 -42 -27 -42 -26 0 -28 2 -28 45 0 29 -4 45 -12 45 -9 0 -13 -15 -11
-45 1 -43 0 -45 -28 -45 l-29 0 0 95 c0 57 -4 95 -10 95 -6 0 -10 -38 -10 -95
l0 -95 -30 0 c-29 0 -30 2 -30 45 0 25 -4 45 -10 45 -5 0 -10 -20 -10 -45 0
-43 -1 -45 -30 -45 -29 0 -30 2 -30 45 0 25 -4 45 -10 45 -5 0 -10 -20 -10
-45 0 -43 -1 -45 -30 -45 -29 0 -30 2 -30 45 0 25 -4 45 -10 45 -5 0 -10 -20
-10 -45 0 -43 -1 -45 -30 -45 -29 0 -30 2 -30 45 0 25 -4 45 -10 45 -5 0 -10
-20 -10 -45 0 -42 -2 -45 -27 -45 l-28 0 3 95 c3 83 1 95 -13 95 -14 0 -16
-12 -13 -95z"/>
<path d="M5028 4994 c-5 -4 -8 -40 -8 -81 0 -58 -3 -73 -15 -73 -8 0 -15 -4
-15 -10 0 -5 7 -10 15 -10 12 0 15 -16 15 -85 l0 -85 -35 0 c-19 0 -35 -4 -35
-10 0 -5 16 -10 35 -10 l35 0 0 -90 c0 -73 -3 -90 -15 -90 -8 0 -15 -4 -15
-10 0 -5 7 -10 15 -10 12 0 15 -17 15 -90 l0 -90 -35 0 c-19 0 -35 -4 -35 -10
0 -5 16 -10 35 -10 l35 0 0 -85 c0 -69 -3 -85 -15 -85 -8 0 -15 -7 -15 -15 0
-8 7 -15 15 -15 12 0 15 -16 15 -85 l0 -85 -35 0 c-19 0 -35 -4 -35 -10 0 -5
16 -10 35 -10 l35 0 0 -90 c0 -73 -3 -90 -15 -90 -8 0 -15 -4 -15 -10 0 -5 7
-10 15 -10 12 0 15 -16 15 -85 l0 -85 -35 0 c-24 0 -35 -5 -35 -15 0 -10 11
-15 35 -15 l35 0 0 -85 c0 -69 -3 -85 -15 -85 -8 0 -15 -4 -15 -10 0 -5 7 -10
15 -10 12 0 15 -17 15 -90 l0 -90 -35 0 c-19 0 -35 -4 -35 -10 0 -5 16 -10 35
-10 l35 0 0 -85 c0 -69 -3 -85 -15 -85 -8 0 -15 -7 -15 -15 0 -8 7 -15 15 -15
12 0 15 -16 15 -85 l0 -85 -35 0 c-19 0 -35 -4 -35 -10 0 -5 16 -10 35 -10
l35 0 0 -90 c0 -73 -3 -90 -15 -90 -8 0 -15 -4 -15 -10 0 -5 7 -10 15 -10 12
0 15 -17 15 -90 l0 -90 -35 0 c-19 0 -35 -4 -35 -10 0 -5 16 -10 35 -10 l35 0
0 -85 c0 -69 -3 -85 -15 -85 -8 0 -15 -4 -15 -10 0 -5 7 -10 15 -10 12 0 15
-17 15 -90 l0 -90 -35 0 c-19 0 -35 -4 -35 -10 0 -5 16 -10 35 -10 l35 0 0
-90 c0 -61 -4 -89 -11 -87 -6 1 -14 -4 -16 -10 -3 -7 2 -13 11 -13 13 0 16
-14 16 -85 l0 -85 -36 0 c-24 0 -34 -4 -31 -12 2 -8 16 -12 35 -10 l32 4 0
-91 c0 -74 -3 -91 -15 -91 -8 0 -15 -4 -15 -10 0 -5 7 -10 15 -10 12 0 15 -17
15 -90 l0 -90 -35 0 c-19 0 -35 -4 -35 -10 0 -6 33 -10 80 -10 47 0 80 4 80
10 0 6 -9 10 -19 10 -47 0 -51 8 -51 96 0 77 2 84 20 84 11 0 20 5 20 10 0 6
-9 10 -20 10 -19 0 -20 7 -20 91 l0 91 32 -4 c19 -2 33 2 35 10 3 8 -7 12 -31
12 l-36 0 0 84 c0 78 2 84 22 89 22 6 18 22 -5 22 -8 0 -13 29 -15 88 l-3 87
36 0 c19 0 35 5 35 10 0 6 -16 10 -35 10 l-35 0 0 89 c0 85 1 90 23 94 l22 4
-22 8 c-21 7 -23 13 -23 91 l0 84 36 0 c24 0 34 4 31 13 -2 7 -16 11 -35 9
l-32 -4 0 90 c0 84 1 90 23 97 l22 8 -22 4 c-22 4 -23 9 -23 94 l0 89 35 0
c19 0 35 5 35 10 0 6 -16 10 -35 10 l-35 0 0 84 c0 77 2 84 21 89 23 6 17 27
-7 27 -11 0 -14 18 -14 85 l0 85 35 0 c19 0 35 5 35 10 0 6 -16 10 -35 10
l-35 0 0 90 c0 83 1 90 20 90 11 0 20 5 20 10 0 6 -9 10 -20 10 -18 0 -20 7
-20 85 l0 85 35 0 c24 0 35 5 35 15 0 10 -11 15 -35 15 l-35 0 0 84 c0 78 2
84 23 91 l22 8 -22 4 c-22 4 -23 9 -23 94 l0 89 35 0 c19 0 35 5 35 10 0 6
-16 10 -35 10 l-35 0 0 84 c0 77 2 84 21 89 23 6 17 27 -7 27 -11 0 -14 18
-14 85 l0 85 35 0 c19 0 35 5 35 10 0 6 -16 10 -35 10 l-35 0 0 89 c0 85 1 90
23 94 l22 4 -22 8 c-22 7 -23 13 -23 96 l0 89 35 0 c19 0 35 5 35 10 0 6 -16
10 -35 10 l-35 0 0 84 c0 78 2 84 23 91 l22 8 -22 4 c-20 4 -22 11 -25 85 -2
44 -6 76 -10 72z"/>
<path d="M5884 4689 c-4 -7 -2 -15 4 -17 7 -2 12 -23 12 -48 0 -24 5 -44 10
-44 16 0 12 96 -4 109 -11 9 -16 9 -22 0z"/>
<path d="M4144 4675 c3 -9 6 -35 6 -57 0 -27 4 -38 13 -36 7 3 12 23 12 54 0
40 -3 49 -19 52 -14 3 -17 0 -12 -13z"/>
<path d="M4225 4650 c-4 -6 -1 -17 5 -26 15 -18 42 0 33 22 -6 16 -29 19 -38
4z"/>
<path d="M4621 4646 c-8 -10 -8 -16 2 -24 17 -14 42 2 34 22 -8 20 -21 20 -36
2z"/>
<path d="M5403 4644 c-7 -20 17 -37 34 -23 15 13 6 39 -13 39 -8 0 -17 -7 -21
-16z"/>
<path d="M5801 4646 c-8 -10 -8 -16 2 -24 17 -14 42 2 34 22 -8 20 -21 20 -36
2z"/>
<path d="M4312 4641 c2 -7 7 -12 11 -12 12 1 9 15 -3 20 -7 2 -11 -2 -8 -8z"/>
<path d="M4390 4635 c0 -9 5 -15 11 -13 6 2 11 8 11 13 0 5 -5 11 -11 13 -6 2
-11 -4 -11 -13z"/>
<path d="M4470 4635 c0 -8 5 -15 10 -15 6 0 10 7 10 15 0 8 -4 15 -10 15 -5 0
-10 -7 -10 -15z"/>
<path d="M4547 4644 c-8 -8 1 -24 14 -24 5 0 9 7 9 15 0 15 -12 20 -23 9z"/>
<path d="M4702 4639 c2 -6 8 -10 13 -10 5 0 11 4 13 10 2 6 -4 11 -13 11 -9 0
-15 -5 -13 -11z"/>
<path d="M4782 4639 c2 -6 8 -10 13 -10 5 0 11 4 13 10 2 6 -4 11 -13 11 -9 0
-15 -5 -13 -11z"/>
<path d="M4860 4635 c0 -9 5 -15 11 -13 6 2 11 8 11 13 0 5 -5 11 -11 13 -6 2
-11 -4 -11 -13z"/>
<path d="M5177 4644 c-8 -8 1 -24 14 -24 5 0 9 7 9 15 0 15 -12 20 -23 9z"/>
<path d="M5257 4644 c-8 -8 1 -24 14 -24 5 0 9 7 9 15 0 15 -12 20 -23 9z"/>
<path d="M5332 4639 c2 -6 8 -10 13 -10 5 0 11 4 13 10 2 6 -4 11 -13 11 -9 0
-15 -5 -13 -11z"/>
<path d="M5490 4635 c0 -9 5 -15 11 -13 6 2 11 8 11 13 0 5 -5 11 -11 13 -6 2
-11 -4 -11 -13z"/>
<path d="M5570 4635 c0 -9 5 -15 11 -13 6 2 11 8 11 13 0 5 -5 11 -11 13 -6 2
-11 -4 -11 -13z"/>
<path d="M5650 4635 c0 -8 5 -15 10 -15 6 0 10 7 10 15 0 8 -4 15 -10 15 -5 0
-10 -7 -10 -15z"/>
<path d="M5727 4644 c-8 -8 1 -24 14 -24 5 0 9 7 9 15 0 15 -12 20 -23 9z"/>
<path d="M4130 4285 c-7 -9 -9 -19 -5 -23 4 -4 10 -1 12 6 3 6 11 12 19 12 22
0 16 -34 -11 -60 -34 -31 -32 -40 9 -40 40 0 58 19 27 27 -21 5 -21 5 -1 30
15 19 17 30 9 44 -12 23 -42 25 -59 4z"/>
<path d="M5870 4285 c-17 -20 -5 -32 15 -15 11 9 19 10 26 3 7 -7 1 -21 -20
-46 -17 -19 -31 -38 -31 -41 0 -4 17 -6 38 -4 20 2 35 7 32 13 -3 6 -11 9 -17
9 -18 -2 -16 6 8 32 17 18 19 26 10 43 -14 25 -43 27 -61 6z"/>
<path d="M4231 4256 c-14 -17 -7 -36 14 -36 22 0 29 20 13 36 -13 13 -16 13
-27 0z"/>
<path d="M4626 4263 c-3 -4 -6 -15 -6 -25 0 -24 33 -21 38 3 3 17 -21 33 -32
22z"/>
<path d="M5410 4256 c-13 -17 -6 -36 15 -36 19 0 26 27 11 39 -10 8 -17 7 -26
-3z"/>
<path d="M5803 4254 c-7 -19 11 -39 26 -30 16 10 13 33 -4 40 -9 3 -18 -1 -22
-10z"/>
<path d="M4315 4249 c-10 -15 3 -25 16 -12 7 7 7 13 1 17 -6 3 -14 1 -17 -5z"/>
<path d="M4390 4245 c0 -9 5 -15 11 -13 6 2 11 8 11 13 0 5 -5 11 -11 13 -6 2
-11 -4 -11 -13z"/>
<path d="M4470 4245 c0 -8 5 -15 10 -15 6 0 10 7 10 15 0 8 -4 15 -10 15 -5 0
-10 -7 -10 -15z"/>
<path d="M4550 4245 c0 -8 5 -15 10 -15 6 0 10 7 10 15 0 8 -4 15 -10 15 -5 0
-10 -7 -10 -15z"/>
<path d="M4706 4253 c-11 -11 -6 -23 9 -23 8 0 15 4 15 9 0 13 -16 22 -24 14z"/>
<path d="M4786 4253 c-11 -11 -6 -23 9 -23 8 0 15 4 15 9 0 13 -16 22 -24 14z"/>
<path d="M4866 4253 c-11 -11 -6 -23 9 -23 8 0 15 4 15 9 0 13 -16 22 -24 14z"/>
<path d="M5177 4254 c-8 -8 1 -24 14 -24 5 0 9 7 9 15 0 15 -12 20 -23 9z"/>
<path d="M5256 4253 c-11 -11 -6 -23 9 -23 8 0 15 4 15 9 0 13 -16 22 -24 14z"/>
<path d="M5336 4253 c-11 -11 -6 -23 9 -23 8 0 15 4 15 9 0 13 -16 22 -24 14z"/>
<path d="M5490 4246 c0 -9 7 -16 16 -16 9 0 14 5 12 12 -6 18 -28 21 -28 4z"/>
<path d="M5570 4245 c0 -9 5 -15 11 -13 6 2 11 8 11 13 0 5 -5 11 -11 13 -6 2
-11 -4 -11 -13z"/>
<path d="M5650 4245 c0 -9 5 -15 11 -13 6 2 11 8 11 13 0 5 -5 11 -11 13 -6 2
-11 -4 -11 -13z"/>
<path d="M5730 4245 c0 -8 5 -15 10 -15 6 0 10 7 10 15 0 8 -4 15 -10 15 -5 0
-10 -7 -10 -15z"/>
<path d="M3753 3903 c-7 -2 -13 -12 -13 -20 0 -13 3 -13 15 -3 20 17 32 5 15
-15 -10 -12 -9 -16 4 -21 19 -7 22 -34 3 -34 -7 0 -18 5 -25 12 -17 17 -28 2
-12 -17 15 -18 44 -20 58 -2 12 14 11 75 -1 95 -8 12 -23 14 -44 5z"/>
<path d="M6267 3904 c-4 -4 -7 -14 -7 -22 0 -12 3 -12 15 -2 9 7 19 9 23 5 4
-4 1 -10 -5 -12 -18 -6 -16 -33 2 -33 8 0 15 -4 15 -9 0 -17 -21 -23 -36 -10
-8 6 -17 9 -21 6 -9 -10 18 -37 37 -37 30 0 40 23 32 71 -6 33 -12 45 -28 47
-11 2 -23 0 -27 -4z"/>
<path d="M3837 3863 c-14 -13 -6 -33 13 -33 13 0 20 7 20 20 0 19 -20 27 -33
13z"/>
<path d="M4225 3860 c-4 -7 -3 -16 3 -22 14 -14 45 -2 40 15 -6 16 -34 21 -43
7z"/>
<path d="M4620 3850 c0 -15 5 -20 18 -18 9 2 17 10 17 18 0 8 -8 16 -17 18
-13 2 -18 -3 -18 -18z"/>
<path d="M5405 3860 c-4 -7 -3 -16 3 -22 14 -14 45 -2 40 15 -6 16 -34 21 -43
7z"/>
<path d="M5796 3855 c-3 -9 1 -18 10 -22 19 -7 39 11 30 26 -10 16 -33 13 -40
-4z"/>
<path d="M6197 3863 c-14 -13 -6 -33 13 -33 13 0 20 7 20 20 0 19 -20 27 -33
13z"/>
<path d="M3995 3851 c-6 -11 9 -23 19 -14 9 9 7 23 -3 23 -6 0 -12 -4 -16 -9z"/>
<path d="M4072 3849 c2 -6 8 -10 13 -10 5 0 11 4 13 10 2 6 -4 11 -13 11 -9 0
-15 -5 -13 -11z"/>
<path d="M4152 3849 c2 -6 8 -10 13 -10 5 0 11 4 13 10 2 6 -4 11 -13 11 -9 0
-15 -5 -13 -11z"/>
<path d="M4312 3851 c2 -7 7 -12 11 -12 12 1 9 15 -3 20 -7 2 -11 -2 -8 -8z"/>
<path d="M4392 3851 c2 -7 7 -12 11 -12 12 1 9 15 -3 20 -7 2 -11 -2 -8 -8z"/>
<path d="M4702 3849 c2 -6 8 -10 13 -10 5 0 11 4 13 10 2 6 -4 11 -13 11 -9 0
-15 -5 -13 -11z"/>
<path d="M4780 3850 c0 -5 7 -10 15 -10 8 0 15 5 15 10 0 6 -7 10 -15 10 -8 0
-15 -4 -15 -10z"/>
<path d="M4860 3850 c0 -5 7 -10 15 -10 8 0 15 5 15 10 0 6 -7 10 -15 10 -8 0
-15 -4 -15 -10z"/>
<path d="M5252 3849 c2 -6 8 -10 13 -10 5 0 11 4 13 10 2 6 -4 11 -13 11 -9 0
-15 -5 -13 -11z"/>
<path d="M5332 3849 c2 -6 8 -10 13 -10 5 0 11 4 13 10 2 6 -4 11 -13 11 -9 0
-15 -5 -13 -11z"/>
<path d="M5492 3849 c2 -6 8 -10 13 -10 5 0 11 4 13 10 2 6 -4 11 -13 11 -9 0
-15 -5 -13 -11z"/>
<path d="M5572 3851 c4 -13 18 -16 19 -4 0 4 -5 9 -11 12 -7 2 -11 -2 -8 -8z"/>
<path d="M5882 3849 c2 -6 8 -10 13 -10 5 0 11 4 13 10 2 6 -4 11 -13 11 -9 0
-15 -5 -13 -11z"/>
<path d="M5962 3849 c2 -6 8 -10 13 -10 5 0 11 4 13 10 2 6 -4 11 -13 11 -9 0
-15 -5 -13 -11z"/>
<path d="M6040 3850 c0 -5 7 -10 15 -10 8 0 15 5 15 10 0 6 -7 10 -15 10 -8 0
-15 -4 -15 -10z"/>
<path d="M3758 3467 l-27 -42 22 -4 c12 -1 25 -8 30 -15 9 -14 29 13 22 32 -3
8 -5 27 -5 43 0 40 -10 36 -42 -14z"/>
<path d="M6280 3472 c-35 -51 -35 -52 -7 -52 14 0 28 -6 30 -12 7 -18 29 12
22 30 -3 8 -5 27 -5 43 0 39 -10 36 -40 -9z"/>
<path d="M3833 3464 c-8 -21 13 -42 28 -27 13 13 5 43 -11 43 -6 0 -13 -7 -17
-16z"/>
<path d="M4225 3470 c-4 -6 -1 -17 5 -26 15 -18 42 0 33 22 -6 16 -29 19 -38
4z"/>
<path d="M4623 3464 c-8 -21 13 -42 28 -27 13 13 5 43 -11 43 -6 0 -13 -7 -17
-16z"/>
<path d="M5403 3464 c-9 -23 13 -40 32 -24 12 10 13 16 4 26 -15 18 -28 18
-36 -2z"/>
<path d="M5801 3466 c-9 -10 -8 -16 4 -26 19 -16 41 1 32 24 -8 20 -21 20 -36
2z"/>
<path d="M6193 3464 c-8 -21 13 -42 28 -27 13 13 5 43 -11 43 -6 0 -13 -7 -17
-16z"/>
<path d="M3917 3464 c-8 -8 1 -24 14 -24 5 0 9 7 9 15 0 15 -12 20 -23 9z"/>
<path d="M3997 3464 c-8 -8 1 -24 14 -24 5 0 9 7 9 15 0 15 -12 20 -23 9z"/>
<path d="M4077 3463 c-12 -11 -8 -23 8 -23 8 0 15 7 15 15 0 16 -12 20 -23 8z"/>
<path d="M4157 3463 c-12 -11 -8 -23 8 -23 8 0 15 7 15 15 0 16 -12 20 -23 8z"/>
<path d="M4310 3455 c0 -9 5 -15 11 -13 6 2 11 8 11 13 0 5 -5 11 -11 13 -6 2
-11 -4 -11 -13z"/>
<path d="M4390 3455 c0 -9 5 -15 11 -13 6 2 11 8 11 13 0 5 -5 11 -11 13 -6 2
-11 -4 -11 -13z"/>
<path d="M4467 3464 c-8 -8 1 -24 14 -24 5 0 9 7 9 15 0 15 -12 20 -23 9z"/>
<path d="M4547 3464 c-8 -8 1 -24 14 -24 5 0 9 7 9 15 0 15 -12 20 -23 9z"/>
<path d="M4707 3464 c-8 -8 1 -24 14 -24 5 0 9 7 9 15 0 15 -12 20 -23 9z"/>
<path d="M4785 3459 c-4 -6 -5 -13 -2 -16 7 -7 27 6 27 18 0 12 -17 12 -25 -2z"/>
<path d="M4860 3455 c0 -9 5 -15 11 -13 6 2 11 8 11 13 0 5 -5 11 -11 13 -6 2
-11 -4 -11 -13z"/>
<path d="M5177 3464 c-8 -8 1 -24 14 -24 5 0 9 7 9 15 0 15 -12 20 -23 9z"/>
<path d="M5257 3464 c-8 -8 1 -24 14 -24 5 0 9 7 9 15 0 15 -12 20 -23 9z"/>
<path d="M5337 3463 c-12 -11 -8 -23 8 -23 8 0 15 7 15 15 0 16 -12 20 -23 8z"/>
<path d="M5490 3455 c0 -9 5 -15 11 -13 6 2 11 8 11 13 0 5 -5 11 -11 13 -6 2
-11 -4 -11 -13z"/>
<path d="M5570 3455 c0 -9 5 -15 11 -13 6 2 11 8 11 13 0 5 -5 11 -11 13 -6 2
-11 -4 -11 -13z"/>
<path d="M5650 3455 c0 -9 5 -15 11 -13 6 2 11 8 11 13 0 5 -5 11 -11 13 -6 2
-11 -4 -11 -13z"/>
<path d="M5727 3464 c-8 -8 1 -24 14 -24 5 0 9 7 9 15 0 15 -12 20 -23 9z"/>
<path d="M5887 3464 c-8 -8 1 -24 14 -24 5 0 9 7 9 15 0 15 -12 20 -23 9z"/>
<path d="M5966 3462 c-3 -6 -1 -14 5 -17 15 -10 25 3 12 16 -7 7 -13 7 -17 1z"/>
<path d="M6040 3455 c0 -9 5 -15 11 -13 6 2 11 8 11 13 0 5 -5 11 -11 13 -6 2
-11 -4 -11 -13z"/>
<path d="M6120 3455 c0 -9 5 -15 11 -13 6 2 11 8 11 13 0 5 -5 11 -11 13 -6 2
-11 -4 -11 -13z"/>
<path d="M3356 3098 c-9 -35 -8 -38 13 -38 24 0 32 -12 21 -30 -7 -11 -11 -12
-24 0 -22 17 -34 4 -14 -16 20 -20 55 -10 64 18 5 16 0 27 -15 39 -25 20 -27
29 -6 29 8 0 15 5 15 10 0 6 -11 10 -24 10 -16 0 -26 -7 -30 -22z"/>
<path d="M6667 3113 c-4 -3 -7 -17 -7 -30 0 -16 6 -23 20 -23 11 0 20 -6 20
-14 0 -19 -23 -33 -28 -18 -5 17 -22 15 -22 -2 0 -20 38 -30 55 -16 22 19 19
61 -5 67 -11 3 -20 9 -20 14 0 5 9 9 20 9 11 0 20 5 20 10 0 11 -43 14 -53 3z"/>
<path d="M3440 3059 c0 -14 5 -19 17 -17 26 5 29 38 4 38 -15 0 -21 -6 -21
-21z"/>
<path d="M3526 3073 c-11 -11 -6 -23 9 -23 8 0 15 4 15 9 0 13 -16 22 -24 14z"/>
<path d="M3606 3073 c-11 -11 -6 -23 9 -23 8 0 15 4 15 9 0 13 -16 22 -24 14z"/>
<path d="M3686 3073 c-11 -11 -6 -23 9 -23 8 0 15 4 15 9 0 13 -16 22 -24 14z"/>
<path d="M3832 3063 c5 -26 38 -29 38 -4 0 15 -6 21 -21 21 -14 0 -19 -5 -17
-17z"/>
<path d="M4076 3073 c-11 -11 -6 -23 9 -23 8 0 15 4 15 9 0 13 -16 22 -24 14z"/>
<path d="M4156 3073 c-11 -11 -6 -23 9 -23 8 0 15 4 15 9 0 13 -16 22 -24 14z"/>
<path d="M4225 3070 c-4 -7 -3 -16 3 -22 14 -14 45 -2 40 15 -6 16 -34 21 -43
7z"/>
<path d="M4316 3073 c-11 -11 -6 -23 9 -23 8 0 15 4 15 9 0 13 -16 22 -24 14z"/>
<path d="M4395 3069 c-10 -15 3 -25 16 -12 7 7 7 13 1 17 -6 3 -14 1 -17 -5z"/>
<path d="M4616 3072 c-9 -14 12 -35 28 -29 23 9 20 37 -3 37 -11 0 -22 -4 -25
-8z"/>
<path d="M4706 3073 c-11 -11 -6 -23 9 -23 8 0 15 4 15 9 0 13 -16 22 -24 14z"/>
<path d="M4786 3073 c-11 -11 -6 -23 9 -23 8 0 15 4 15 9 0 13 -16 22 -24 14z"/>
<path d="M4866 3073 c-11 -11 -6 -23 9 -23 8 0 15 4 15 9 0 13 -16 22 -24 14z"/>
<path d="M5176 3072 c-3 -6 -1 -14 5 -17 15 -10 25 3 12 16 -7 7 -13 7 -17 1z"/>
<path d="M5256 3072 c-3 -6 -1 -14 5 -17 15 -10 25 3 12 16 -7 7 -13 7 -17 1z"/>
<path d="M5336 3073 c-11 -11 -6 -23 9 -23 8 0 15 4 15 9 0 13 -16 22 -24 14z"/>
<path d="M5405 3070 c-4 -7 -3 -16 3 -22 14 -14 45 -2 40 15 -6 16 -34 21 -43
7z"/>
<path d="M5496 3073 c-11 -11 -6 -23 9 -23 8 0 15 4 15 9 0 13 -16 22 -24 14z"/>
<path d="M5575 3069 c-10 -15 3 -25 16 -12 7 7 7 13 1 17 -6 3 -14 1 -17 -5z"/>
<path d="M5797 3073 c-3 -5 -2 -15 3 -22 10 -17 43 -6 38 12 -6 15 -34 22 -41
10z"/>
<path d="M5886 3073 c-11 -11 -6 -23 9 -23 8 0 15 4 15 9 0 13 -16 22 -24 14z"/>
<path d="M5966 3073 c-11 -11 -6 -23 9 -23 8 0 15 4 15 9 0 13 -16 22 -24 14z"/>
<path d="M6046 3073 c-11 -11 -6 -23 9 -23 8 0 15 4 15 9 0 13 -16 22 -24 14z"/>
<path d="M6126 3073 c-11 -11 -6 -23 9 -23 8 0 15 4 15 9 0 13 -16 22 -24 14z"/>
<path d="M6192 3063 c5 -26 38 -29 38 -4 0 15 -6 21 -21 21 -14 0 -19 -5 -17
-17z"/>
<path d="M6356 3072 c-3 -6 -1 -14 5 -17 15 -10 25 3 12 16 -7 7 -13 7 -17 1z"/>
<path d="M6436 3073 c-11 -11 -6 -23 9 -23 8 0 15 4 15 9 0 13 -16 22 -24 14z"/>
<path d="M6516 3073 c-11 -11 -6 -23 9 -23 8 0 15 4 15 9 0 13 -16 22 -24 14z"/>
<path d="M6585 3070 c-4 -7 -3 -16 3 -22 14 -14 45 -2 40 15 -6 16 -34 21 -43
7z"/>
<path d="M3365 2692 c-22 -34 -26 -48 -18 -60 15 -25 50 -27 63 -3 8 17 7 24
-9 40 -13 13 -16 22 -9 29 6 6 8 16 6 23 -3 8 -16 -4 -33 -29z m25 -47 c0 -8
-7 -15 -15 -15 -16 0 -20 12 -8 23 11 12 23 8 23 -8z"/>
<path d="M6671 2696 c-25 -40 -27 -74 -5 -83 38 -15 70 38 38 62 -15 10 -16
16 -6 28 8 9 9 18 3 21 -5 3 -19 -9 -30 -28z m29 -51 c0 -8 -7 -15 -15 -15 -8
0 -15 7 -15 15 0 8 7 15 15 15 8 0 15 -7 15 -15z"/>
<path d="M3440 2670 c0 -15 5 -20 18 -18 9 2 17 10 17 18 0 8 -8 16 -17 18
-13 2 -18 -3 -18 -18z"/>
<path d="M3837 2684 c-14 -15 -6 -34 14 -34 14 0 19 5 17 17 -3 18 -20 27 -31
17z"/>
<path d="M4224 2679 c-3 -6 0 -17 8 -25 13 -13 16 -13 27 0 7 8 10 20 6 26 -8
13 -32 13 -41 -1z"/>
<path d="M4621 2676 c-8 -10 -8 -16 2 -24 17 -14 42 2 34 22 -8 20 -21 20 -36
2z"/>
<path d="M5404 2679 c-3 -6 0 -17 8 -25 13 -13 16 -13 27 0 7 8 10 20 6 26 -8
13 -32 13 -41 -1z"/>
<path d="M5800 2671 c0 -15 6 -21 21 -21 14 0 19 5 17 17 -5 26 -38 29 -38 4z"/>
<path d="M6197 2684 c-14 -15 -6 -34 14 -34 14 0 19 5 17 17 -3 18 -20 27 -31
17z"/>
<path d="M6585 2680 c-4 -7 -3 -16 3 -22 14 -14 45 -2 40 15 -6 16 -34 21 -43
7z"/>
<path d="M3522 2669 c2 -6 8 -10 13 -10 5 0 11 4 13 10 2 6 -4 11 -13 11 -9 0
-15 -5 -13 -11z"/>
<path d="M3602 2669 c2 -6 8 -10 13 -10 5 0 11 4 13 10 2 6 -4 11 -13 11 -9 0
-15 -5 -13 -11z"/>
<path d="M3682 2669 c2 -6 8 -10 13 -10 5 0 11 4 13 10 2 6 -4 11 -13 11 -9 0
-15 -5 -13 -11z"/>
<path d="M3760 2665 c0 -9 5 -15 11 -13 6 2 11 8 11 13 0 5 -5 11 -11 13 -6 2
-11 -4 -11 -13z"/>
<path d="M3920 2665 c0 -8 5 -15 10 -15 6 0 10 7 10 15 0 8 -4 15 -10 15 -5 0
-10 -7 -10 -15z"/>
<path d="M3992 2669 c2 -6 8 -10 13 -10 5 0 11 4 13 10 2 6 -4 11 -13 11 -9 0
-15 -5 -13 -11z"/>
<path d="M4072 2669 c2 -6 8 -10 13 -10 5 0 11 4 13 10 2 6 -4 11 -13 11 -9 0
-15 -5 -13 -11z"/>
<path d="M4152 2669 c2 -6 8 -10 13 -10 5 0 11 4 13 10 2 6 -4 11 -13 11 -9 0
-15 -5 -13 -11z"/>
<path d="M4312 2669 c2 -6 8 -10 13 -10 5 0 11 4 13 10 2 6 -4 11 -13 11 -9 0
-15 -5 -13 -11z"/>
<path d="M4392 2671 c2 -7 7 -12 11 -12 12 1 9 15 -3 20 -7 2 -11 -2 -8 -8z"/>
<path d="M4470 2665 c0 -8 5 -15 10 -15 6 0 10 7 10 15 0 8 -4 15 -10 15 -5 0
-10 -7 -10 -15z"/>
<path d="M4550 2665 c0 -8 5 -15 10 -15 6 0 10 7 10 15 0 8 -4 15 -10 15 -5 0
-10 -7 -10 -15z"/>
<path d="M4702 2668 c6 -18 28 -21 28 -4 0 9 -7 16 -16 16 -9 0 -14 -5 -12
-12z"/>
<path d="M4782 2669 c2 -6 8 -10 13 -10 5 0 11 4 13 10 2 6 -4 11 -13 11 -9 0
-15 -5 -13 -11z"/>
<path d="M4860 2664 c0 -9 5 -14 12 -12 18 6 21 28 4 28 -9 0 -16 -7 -16 -16z"/>
<path d="M5177 2674 c-8 -8 1 -24 14 -24 5 0 9 7 9 15 0 15 -12 20 -23 9z"/>
<path d="M5252 2669 c2 -6 8 -10 13 -10 5 0 11 4 13 10 2 6 -4 11 -13 11 -9 0
-15 -5 -13 -11z"/>
<path d="M5332 2669 c2 -6 8 -10 13 -10 5 0 11 4 13 10 2 6 -4 11 -13 11 -9 0
-15 -5 -13 -11z"/>
<path d="M5492 2669 c2 -6 8 -10 13 -10 5 0 11 4 13 10 2 6 -4 11 -13 11 -9 0
-15 -5 -13 -11z"/>
<path d="M5570 2665 c0 -8 4 -15 9 -15 5 0 11 7 15 15 3 9 0 15 -9 15 -8 0
-15 -7 -15 -15z"/>
<path d="M5727 2674 c-8 -8 1 -24 14 -24 5 0 9 7 9 15 0 15 -12 20 -23 9z"/>
<path d="M5882 2669 c2 -6 8 -10 13 -10 5 0 11 4 13 10 2 6 -4 11 -13 11 -9 0
-15 -5 -13 -11z"/>
<path d="M5962 2669 c2 -6 8 -10 13 -10 5 0 11 4 13 10 2 6 -4 11 -13 11 -9 0
-15 -5 -13 -11z"/>
<path d="M6042 2669 c2 -6 8 -10 13 -10 5 0 11 4 13 10 2 6 -4 11 -13 11 -9 0
-15 -5 -13 -11z"/>
<path d="M6122 2671 c4 -13 18 -16 19 -4 0 4 -5 9 -11 12 -7 2 -11 -2 -8 -8z"/>
<path d="M6280 2665 c0 -8 5 -15 10 -15 6 0 10 7 10 15 0 8 -4 15 -10 15 -5 0
-10 -7 -10 -15z"/>
<path d="M6357 2674 c-8 -8 1 -24 14 -24 5 0 9 7 9 15 0 15 -12 20 -23 9z"/>
<path d="M6435 2671 c-6 -11 9 -23 19 -14 9 9 7 23 -3 23 -6 0 -12 -4 -16 -9z"/>
<path d="M6512 2669 c2 -6 8 -10 13 -10 5 0 11 4 13 10 2 6 -4 11 -13 11 -9 0
-15 -5 -13 -11z"/>
<path d="M2950 2320 c0 -5 9 -10 20 -10 l20 0 -20 -40 c-23 -45 -24 -50 -10
-50 8 0 60 90 60 105 0 3 -16 5 -35 5 -19 0 -35 -4 -35 -10z"/>
<path d="M7040 2320 c0 -5 9 -10 20 -10 25 0 25 -7 0 -45 -22 -33 -25 -45 -10
-45 8 0 60 90 60 105 0 3 -16 5 -35 5 -19 0 -35 -4 -35 -10z"/>
<path d="M3050 2286 c-13 -17 -6 -36 15 -36 19 0 26 27 11 39 -10 8 -17 7 -26
-3z"/>
<path d="M3443 2284 c-7 -19 11 -39 26 -30 16 10 13 33 -4 40 -9 3 -18 -1 -22
-10z"/>
<path d="M3833 2284 c-8 -21 13 -42 28 -27 13 13 5 43 -11 43 -6 0 -13 -7 -17
-16z"/>
<path d="M4230 2286 c-13 -17 -6 -36 15 -36 19 0 26 27 11 39 -10 8 -17 7 -26
-3z"/>
<path d="M4623 2284 c-8 -21 13 -42 28 -27 13 13 5 43 -11 43 -6 0 -13 -7 -17
-16z"/>
<path d="M5410 2286 c-13 -17 -6 -36 15 -36 19 0 26 27 11 39 -10 8 -17 7 -26
-3z"/>
<path d="M5803 2284 c-8 -21 13 -42 28 -27 13 13 5 43 -11 43 -6 0 -13 -7 -17
-16z"/>
<path d="M6193 2284 c-8 -21 13 -42 28 -27 13 13 5 43 -11 43 -6 0 -13 -7 -17
-16z"/>
<path d="M6591 2286 c-14 -17 -7 -36 14 -36 22 0 29 20 13 36 -13 13 -16 13
-27 0z"/>
<path d="M6983 2284 c-8 -21 13 -42 28 -27 13 13 5 43 -11 43 -6 0 -13 -7 -17
-16z"/>
<path d="M3130 2275 c0 -9 5 -15 11 -13 6 2 11 8 11 13 0 5 -5 11 -11 13 -6 2
-11 -4 -11 -13z"/>
<path d="M3210 2275 c0 -9 5 -15 11 -13 6 2 11 8 11 13 0 5 -5 11 -11 13 -6 2
-11 -4 -11 -13z"/>
<path d="M3290 2275 c0 -8 5 -15 10 -15 6 0 10 7 10 15 0 8 -4 15 -10 15 -5 0
-10 -7 -10 -15z"/>
<path d="M3367 2284 c-8 -8 1 -24 14 -24 5 0 9 7 9 15 0 15 -12 20 -23 9z"/>
<path d="M3527 2283 c-12 -11 -8 -23 8 -23 8 0 15 7 15 15 0 16 -12 20 -23 8z"/>
<path d="M3607 2283 c-12 -11 -8 -23 8 -23 8 0 15 7 15 15 0 16 -12 20 -23 8z"/>
<path d="M3680 2275 c0 -9 5 -15 11 -13 6 2 11 8 11 13 0 5 -5 11 -11 13 -6 2
-11 -4 -11 -13z"/>
<path d="M3760 2275 c0 -9 5 -15 11 -13 6 2 11 8 11 13 0 5 -5 11 -11 13 -6 2
-11 -4 -11 -13z"/>
<path d="M3917 2284 c-8 -8 1 -24 14 -24 5 0 9 7 9 15 0 15 -12 20 -23 9z"/>
<path d="M3997 2284 c-8 -8 1 -24 14 -24 5 0 9 7 9 15 0 15 -12 20 -23 9z"/>
<path d="M4077 2284 c-8 -8 1 -24 14 -24 5 0 9 7 9 15 0 15 -12 20 -23 9z"/>
<path d="M4150 2275 c0 -8 7 -15 15 -15 8 0 15 7 15 15 0 8 -7 15 -15 15 -8 0
-15 -7 -15 -15z"/>
<path d="M4310 2275 c0 -9 5 -15 11 -13 6 2 11 8 11 13 0 5 -5 11 -11 13 -6 2
-11 -4 -11 -13z"/>
<path d="M4390 2275 c0 -9 5 -15 11 -13 6 2 11 8 11 13 0 5 -5 11 -11 13 -6 2
-11 -4 -11 -13z"/>
<path d="M4470 2275 c0 -8 5 -15 10 -15 6 0 10 7 10 15 0 8 -4 15 -10 15 -5 0
-10 -7 -10 -15z"/>
<path d="M4547 2284 c-8 -8 1 -24 14 -24 5 0 9 7 9 15 0 15 -12 20 -23 9z"/>
<path d="M4707 2284 c-8 -8 1 -24 14 -24 5 0 9 7 9 15 0 15 -12 20 -23 9z"/>
<path d="M4786 2283 c-11 -11 -6 -23 9 -23 8 0 15 4 15 9 0 13 -16 22 -24 14z"/>
<path d="M4860 2275 c0 -9 5 -15 11 -13 6 2 11 8 11 13 0 5 -5 11 -11 13 -6 2
-11 -4 -11 -13z"/>
<path d="M5177 2284 c-8 -8 1 -24 14 -24 5 0 9 7 9 15 0 15 -12 20 -23 9z"/>
<path d="M5257 2284 c-8 -8 1 -24 14 -24 5 0 9 7 9 15 0 15 -12 20 -23 9z"/>
<path d="M5337 2283 c-12 -11 -8 -23 8 -23 8 0 15 7 15 15 0 16 -12 20 -23 8z"/>
<path d="M5490 2275 c0 -9 5 -15 11 -13 6 2 11 8 11 13 0 5 -5 11 -11 13 -6 2
-11 -4 -11 -13z"/>
<path d="M5570 2275 c0 -9 5 -15 11 -13 6 2 11 8 11 13 0 5 -5 11 -11 13 -6 2
-11 -4 -11 -13z"/>
<path d="M5650 2275 c0 -9 5 -15 11 -13 6 2 11 8 11 13 0 5 -5 11 -11 13 -6 2
-11 -4 -11 -13z"/>
<path d="M5730 2275 c0 -8 5 -15 10 -15 6 0 10 7 10 15 0 8 -4 15 -10 15 -5 0
-10 -7 -10 -15z"/>
<path d="M5887 2284 c-8 -8 1 -24 14 -24 5 0 9 7 9 15 0 15 -12 20 -23 9z"/>
<path d="M5967 2283 c-12 -11 -8 -23 8 -23 8 0 15 7 15 15 0 16 -12 20 -23 8z"/>
<path d="M6040 2276 c0 -9 7 -16 16 -16 17 0 14 22 -4 28 -7 2 -12 -3 -12 -12z"/>
<path d="M6120 2276 c0 -9 7 -16 16 -16 17 0 14 22 -4 28 -7 2 -12 -3 -12 -12z"/>
<path d="M6280 2275 c0 -8 5 -15 10 -15 6 0 10 7 10 15 0 8 -4 15 -10 15 -5 0
-10 -7 -10 -15z"/>
<path d="M6357 2284 c-8 -8 1 -24 14 -24 5 0 9 7 9 15 0 15 -12 20 -23 9z"/>
<path d="M6437 2284 c-8 -8 1 -24 14 -24 5 0 9 7 9 15 0 15 -12 20 -23 9z"/>
<path d="M6516 2283 c-11 -11 -6 -23 9 -23 8 0 15 4 15 9 0 13 -16 22 -24 14z"/>
<path d="M6670 2275 c0 -9 5 -15 11 -13 6 2 11 8 11 13 0 5 -5 11 -11 13 -6 2
-11 -4 -11 -13z"/>
<path d="M6750 2275 c0 -9 5 -15 11 -13 6 2 11 8 11 13 0 5 -5 11 -11 13 -6 2
-11 -4 -11 -13z"/>
<path d="M6830 2275 c0 -8 5 -15 10 -15 6 0 10 7 10 15 0 8 -4 15 -10 15 -5 0
-10 -7 -10 -15z"/>
<path d="M6910 2275 c0 -8 5 -15 10 -15 6 0 10 7 10 15 0 8 -4 15 -10 15 -5 0
-10 -7 -10 -15z"/>
<path d="M2960 1925 c-7 -8 -10 -21 -7 -28 3 -8 1 -20 -3 -27 -13 -21 8 -50
35 -50 28 0 53 36 37 52 -6 6 -8 17 -5 24 6 17 -14 44 -32 44 -7 0 -18 -7 -25
-15z m38 -16 c-2 -6 -8 -10 -13 -10 -5 0 -11 4 -13 10 -2 6 4 11 13 11 9 0 15
-5 13 -11z m2 -54 c0 -8 -7 -15 -15 -15 -8 0 -15 7 -15 15 0 8 7 15 15 15 8 0
15 -7 15 -15z"/>
<path d="M7053 1928 c-14 -17 -15 -79 -1 -95 25 -30 78 -1 63 34 -4 10 -8 29
-9 43 -1 28 -36 40 -53 18z m35 -19 c-2 -6 -8 -10 -13 -10 -5 0 -11 4 -13 10
-2 6 4 11 13 11 9 0 15 -5 13 -11z m5 -54 c1 -5 -6 -11 -15 -13 -11 -2 -18 3
-18 13 0 17 30 18 33 0z"/>
<path d="M3045 1890 c-4 -7 -3 -16 3 -22 14 -14 45 -2 40 15 -6 16 -34 21 -43
7z"/>
<path d="M3136 1893 c-11 -11 -6 -23 9 -23 8 0 15 4 15 9 0 13 -16 22 -24 14z"/>
<path d="M3216 1893 c-11 -11 -6 -23 9 -23 8 0 15 4 15 9 0 13 -16 22 -24 14z"/>
<path d="M3440 1880 c0 -15 5 -20 18 -18 9 2 17 10 17 18 0 8 -8 16 -17 18
-13 2 -18 -3 -18 -18z"/>
<path d="M3526 1893 c-11 -11 -6 -23 9 -23 8 0 15 4 15 9 0 13 -16 22 -24 14z"/>
<path d="M3830 1880 c0 -13 7 -20 20 -20 13 0 20 7 20 20 0 13 -7 20 -20 20
-13 0 -20 -7 -20 -20z"/>
<path d="M4225 1890 c-4 -7 -3 -16 3 -22 14 -14 45 -2 40 15 -6 16 -34 21 -43
7z"/>
<path d="M4620 1880 c0 -15 5 -20 18 -18 9 2 17 10 17 18 0 8 -8 16 -17 18
-13 2 -18 -3 -18 -18z"/>
<path d="M5405 1890 c-4 -7 -3 -16 3 -22 14 -14 45 -2 40 15 -6 16 -34 21 -43
7z"/>
<path d="M5496 1893 c-11 -11 -6 -23 9 -23 8 0 15 4 15 9 0 13 -16 22 -24 14z"/>
<path d="M5800 1880 c0 -15 5 -20 18 -18 9 2 17 10 17 18 0 8 -8 16 -17 18
-13 2 -18 -3 -18 -18z"/>
<path d="M5886 1893 c-11 -11 -6 -23 9 -23 8 0 15 4 15 9 0 13 -16 22 -24 14z"/>
<path d="M6046 1893 c-11 -11 -6 -23 9 -23 8 0 15 4 15 9 0 13 -16 22 -24 14z"/>
<path d="M6195 1890 c-8 -14 3 -30 21 -30 8 0 14 9 14 20 0 21 -24 28 -35 10z"/>
<path d="M6516 1893 c-11 -11 -6 -23 9 -23 8 0 15 4 15 9 0 13 -16 22 -24 14z"/>
<path d="M6585 1890 c-4 -7 -3 -16 3 -22 14 -14 45 -2 40 15 -6 16 -34 21 -43
7z"/>
<path d="M6750 1885 c0 -8 7 -15 15 -15 8 0 15 4 15 9 0 5 -7 11 -15 15 -9 3
-15 0 -15 -9z"/>
<path d="M6980 1879 c0 -25 33 -22 38 4 2 12 -3 17 -17 17 -15 0 -21 -6 -21
-21z"/>
<path d="M3600 1880 c0 -5 7 -10 15 -10 8 0 15 5 15 10 0 6 -7 10 -15 10 -8 0
-15 -4 -15 -10z"/>
<path d="M3680 1880 c0 -5 7 -10 15 -10 8 0 15 5 15 10 0 6 -7 10 -15 10 -8 0
-15 -4 -15 -10z"/>
<path d="M3760 1880 c0 -5 7 -10 15 -10 8 0 15 5 15 10 0 6 -7 10 -15 10 -8 0
-15 -4 -15 -10z"/>
<path d="M3990 1880 c0 -5 7 -10 15 -10 8 0 15 5 15 10 0 6 -7 10 -15 10 -8 0
-15 -4 -15 -10z"/>
<path d="M4070 1880 c0 -5 7 -10 15 -10 8 0 15 5 15 10 0 6 -7 10 -15 10 -8 0
-15 -4 -15 -10z"/>
<path d="M4150 1880 c0 -5 7 -10 15 -10 8 0 15 5 15 10 0 6 -7 10 -15 10 -8 0
-15 -4 -15 -10z"/>
<path d="M4310 1880 c0 -5 7 -10 15 -10 8 0 15 5 15 10 0 6 -7 10 -15 10 -8 0
-15 -4 -15 -10z"/>
<path d="M4700 1880 c0 -5 7 -10 15 -10 8 0 15 5 15 10 0 6 -7 10 -15 10 -8 0
-15 -4 -15 -10z"/>
<path d="M4780 1880 c0 -5 7 -10 15 -10 8 0 15 5 15 10 0 6 -7 10 -15 10 -8 0
-15 -4 -15 -10z"/>
<path d="M4860 1880 c0 -5 7 -10 15 -10 8 0 15 5 15 10 0 6 -7 10 -15 10 -8 0
-15 -4 -15 -10z"/>
<path d="M5250 1880 c0 -5 7 -10 15 -10 8 0 15 5 15 10 0 6 -7 10 -15 10 -8 0
-15 -4 -15 -10z"/>
<path d="M5330 1880 c0 -5 7 -10 15 -10 8 0 15 5 15 10 0 6 -7 10 -15 10 -8 0
-15 -4 -15 -10z"/>
<path d="M5570 1880 c0 -5 7 -10 15 -10 8 0 15 5 15 10 0 6 -7 10 -15 10 -8 0
-15 -4 -15 -10z"/>
<path d="M5960 1880 c0 -5 7 -10 15 -10 8 0 15 5 15 10 0 6 -7 10 -15 10 -8 0
-15 -4 -15 -10z"/>
<path d="M6120 1880 c0 -5 7 -10 15 -10 8 0 15 5 15 10 0 6 -7 10 -15 10 -8 0
-15 -4 -15 -10z"/>
<path d="M6430 1880 c0 -5 7 -10 15 -10 8 0 15 5 15 10 0 6 -7 10 -15 10 -8 0
-15 -4 -15 -10z"/>
<path d="M6670 1880 c0 -5 7 -10 15 -10 8 0 15 5 15 10 0 6 -7 10 -15 10 -8 0
-15 -4 -15 -10z"/>
<path d="M2556 1531 c-18 -20 -13 -46 11 -55 12 -5 13 -9 3 -21 -7 -9 -10 -18
-7 -22 9 -8 45 37 53 66 5 17 2 28 -11 38 -24 17 -29 17 -49 -6z m36 -33 c-15
-15 -26 -4 -18 18 5 13 9 15 18 6 9 -9 9 -15 0 -24z"/>
<path d="M7446 1531 c-17 -18 -13 -51 6 -51 6 0 7 -11 4 -25 -9 -35 5 -31 32
10 26 41 27 49 6 69 -20 21 -27 20 -48 -3z m40 -12 c10 -17 -13 -36 -27 -22
-12 12 -4 33 11 33 5 0 12 -5 16 -11z"/>
<path d="M2653 1494 c-8 -21 13 -42 28 -27 13 13 5 43 -11 43 -6 0 -13 -7 -17
-16z"/>
<path d="M3045 1500 c-4 -6 -1 -17 5 -26 15 -18 42 0 33 22 -6 16 -29 19 -38
4z"/>
<path d="M3443 1494 c-8 -20 8 -36 26 -25 15 10 8 41 -9 41 -6 0 -13 -7 -17
-16z"/>
<path d="M3833 1494 c-7 -18 17 -38 31 -24 11 11 1 40 -14 40 -6 0 -13 -7 -17
-16z"/>
<path d="M4225 1500 c-4 -6 -1 -17 5 -26 15 -18 42 0 33 22 -6 16 -29 19 -38
4z"/>
<path d="M4617 1496 c-8 -19 15 -37 32 -26 17 10 7 40 -13 40 -7 0 -16 -6 -19
-14z"/>
<path d="M5405 1500 c-4 -6 -1 -17 5 -26 15 -18 42 0 33 22 -6 16 -29 19 -38
4z"/>
<path d="M5801 1496 c-8 -10 -8 -16 2 -24 17 -14 42 2 34 22 -8 20 -21 20 -36
2z"/>
<path d="M6193 1494 c-8 -21 13 -42 28 -27 13 13 5 43 -11 43 -6 0 -13 -7 -17
-16z"/>
<path d="M6584 1499 c-3 -6 0 -17 8 -25 13 -13 16 -13 27 0 7 8 10 20 6 26 -8
13 -32 13 -41 -1z"/>
<path d="M6983 1494 c-8 -21 13 -42 28 -27 13 13 5 43 -11 43 -6 0 -13 -7 -17
-16z"/>
<path d="M7373 1494 c-8 -21 13 -42 28 -27 13 13 5 43 -11 43 -6 0 -13 -7 -17
-16z"/>
<path d="M2737 1494 c-8 -8 1 -24 14 -24 5 0 9 7 9 15 0 15 -12 20 -23 9z"/>
<path d="M2817 1494 c-8 -8 1 -24 14 -24 5 0 9 7 9 15 0 15 -12 20 -23 9z"/>
<path d="M2892 1488 c6 -18 28 -21 28 -4 0 9 -7 16 -16 16 -9 0 -14 -5 -12
-12z"/>
<path d="M2972 1488 c6 -18 28 -21 28 -4 0 9 -7 16 -16 16 -9 0 -14 -5 -12
-12z"/>
<path d="M3130 1485 c0 -9 5 -15 11 -13 6 2 11 8 11 13 0 5 -5 11 -11 13 -6 2
-11 -4 -11 -13z"/>
<path d="M3210 1485 c0 -9 5 -15 11 -13 6 2 11 8 11 13 0 5 -5 11 -11 13 -6 2
-11 -4 -11 -13z"/>
<path d="M3290 1485 c0 -8 5 -15 10 -15 6 0 10 7 10 15 0 8 -4 15 -10 15 -5 0
-10 -7 -10 -15z"/>
<path d="M3367 1494 c-8 -8 1 -24 14 -24 5 0 9 7 9 15 0 15 -12 20 -23 9z"/>
<path d="M3522 1489 c2 -6 8 -10 13 -10 5 0 11 4 13 10 2 6 -4 11 -13 11 -9 0
-15 -5 -13 -11z"/>
<path d="M3602 1489 c2 -6 8 -10 13 -10 5 0 11 4 13 10 2 6 -4 11 -13 11 -9 0
-15 -5 -13 -11z"/>
<path d="M3680 1485 c0 -9 5 -15 11 -13 6 2 11 8 11 13 0 5 -5 11 -11 13 -6 2
-11 -4 -11 -13z"/>
<path d="M3760 1485 c0 -9 5 -15 11 -13 6 2 11 8 11 13 0 5 -5 11 -11 13 -6 2
-11 -4 -11 -13z"/>
<path d="M3920 1485 c0 -8 5 -15 10 -15 6 0 10 7 10 15 0 8 -4 15 -10 15 -5 0
-10 -7 -10 -15z"/>
<path d="M3997 1494 c-8 -8 1 -24 14 -24 5 0 9 7 9 15 0 15 -12 20 -23 9z"/>
<path d="M4072 1489 c2 -6 8 -10 13 -10 5 0 11 4 13 10 2 6 -4 11 -13 11 -9 0
-15 -5 -13 -11z"/>
<path d="M4152 1488 c6 -18 28 -21 28 -4 0 9 -7 16 -16 16 -9 0 -14 -5 -12
-12z"/>
<path d="M4310 1485 c0 -9 5 -15 11 -13 6 2 11 8 11 13 0 5 -5 11 -11 13 -6 2
-11 -4 -11 -13z"/>
<path d="M4390 1485 c0 -9 5 -15 11 -13 6 2 11 8 11 13 0 5 -5 11 -11 13 -6 2
-11 -4 -11 -13z"/>
<path d="M4467 1494 c-8 -8 1 -24 14 -24 5 0 9 7 9 15 0 15 -12 20 -23 9z"/>
<path d="M4550 1485 c0 -8 5 -15 10 -15 6 0 10 7 10 15 0 8 -4 15 -10 15 -5 0
-10 -7 -10 -15z"/>
<path d="M4705 1491 c-6 -11 9 -23 19 -14 9 9 7 23 -3 23 -6 0 -12 -4 -16 -9z"/>
<path d="M4782 1489 c2 -6 8 -10 13 -10 5 0 11 4 13 10 2 6 -4 11 -13 11 -9 0
-15 -5 -13 -11z"/>
<path d="M4862 1489 c2 -6 8 -10 13 -10 5 0 11 4 13 10 2 6 -4 11 -13 11 -9 0
-15 -5 -13 -11z"/>
<path d="M5177 1494 c-8 -8 1 -24 14 -24 5 0 9 7 9 15 0 15 -12 20 -23 9z"/>
<path d="M5257 1494 c-8 -8 1 -24 14 -24 5 0 9 7 9 15 0 15 -12 20 -23 9z"/>
<path d="M5332 1489 c2 -6 8 -10 13 -10 5 0 11 4 13 10 2 6 -4 11 -13 11 -9 0
-15 -5 -13 -11z"/>
<path d="M5492 1489 c2 -6 8 -10 13 -10 5 0 11 4 13 10 2 6 -4 11 -13 11 -9 0
-15 -5 -13 -11z"/>
<path d="M5570 1485 c0 -9 5 -15 11 -13 6 2 11 8 11 13 0 5 -5 11 -11 13 -6 2
-11 -4 -11 -13z"/>
<path d="M5650 1485 c0 -9 5 -15 11 -13 6 2 11 8 11 13 0 5 -5 11 -11 13 -6 2
-11 -4 -11 -13z"/>
<path d="M5727 1494 c-8 -8 1 -24 14 -24 5 0 9 7 9 15 0 15 -12 20 -23 9z"/>
<path d="M5887 1494 c-8 -8 1 -24 14 -24 5 0 9 7 9 15 0 15 -12 20 -23 9z"/>
<path d="M5962 1489 c2 -6 8 -10 13 -10 5 0 11 4 13 10 2 6 -4 11 -13 11 -9 0
-15 -5 -13 -11z"/>
<path d="M6042 1489 c2 -6 8 -10 13 -10 5 0 11 4 13 10 2 6 -4 11 -13 11 -9 0
-15 -5 -13 -11z"/>
<path d="M6120 1485 c0 -9 5 -15 11 -13 6 2 11 8 11 13 0 5 -5 11 -11 13 -6 2
-11 -4 -11 -13z"/>
<path d="M6280 1485 c0 -8 5 -15 10 -15 6 0 10 7 10 15 0 8 -4 15 -10 15 -5 0
-10 -7 -10 -15z"/>
<path d="M6357 1494 c-8 -8 1 -24 14 -24 5 0 9 7 9 15 0 15 -12 20 -23 9z"/>
<path d="M6437 1494 c-8 -8 1 -24 14 -24 5 0 9 7 9 15 0 15 -12 20 -23 9z"/>
<path d="M6515 1491 c-6 -11 9 -23 19 -14 9 9 7 23 -3 23 -6 0 -12 -4 -16 -9z"/>
<path d="M6670 1485 c0 -9 5 -15 11 -13 6 2 11 8 11 13 0 5 -5 11 -11 13 -6 2
-11 -4 -11 -13z"/>
<path d="M6750 1485 c0 -9 5 -15 11 -13 6 2 11 8 11 13 0 5 -5 11 -11 13 -6 2
-11 -4 -11 -13z"/>
<path d="M6830 1485 c0 -9 5 -15 11 -13 6 2 11 8 11 13 0 5 -5 11 -11 13 -6 2
-11 -4 -11 -13z"/>
<path d="M6910 1485 c0 -8 5 -15 10 -15 6 0 10 7 10 15 0 8 -4 15 -10 15 -5 0
-10 -7 -10 -15z"/>
<path d="M7062 1488 c6 -18 28 -21 28 -4 0 9 -7 16 -16 16 -9 0 -14 -5 -12
-12z"/>
<path d="M7142 1489 c2 -6 8 -10 13 -10 5 0 11 4 13 10 2 6 -4 11 -13 11 -9 0
-15 -5 -13 -11z"/>
<path d="M7220 1484 c0 -9 5 -14 12 -12 18 6 21 28 4 28 -9 0 -16 -7 -16 -16z"/>
<path d="M7300 1485 c0 -9 5 -15 11 -13 6 2 11 8 11 13 0 5 -5 11 -11 13 -6 2
-11 -4 -11 -13z"/>
<path d="M2480 1141 c0 -6 5 -11 10 -11 6 0 10 -20 10 -45 0 -25 5 -45 11 -45
6 0 9 20 7 52 -2 41 -7 54 -20 56 -10 2 -18 -1 -18 -7z"/>
<path d="M2549 1123 c-13 -33 -2 -71 24 -87 15 -9 22 -7 38 13 22 26 23 39 9
75 -14 37 -57 36 -71 -1z m56 -13 c5 -17 -9 -60 -20 -60 -2 0 -9 9 -15 20 -13
25 -4 60 15 60 8 0 16 -9 20 -20z"/>
<path d="M7454 1134 c3 -9 6 -33 6 -55 0 -21 5 -39 10 -39 6 0 10 25 10 55 0
44 -3 55 -16 55 -11 0 -14 -5 -10 -16z"/>
<path d="M7520 1131 c-15 -29 -12 -67 6 -85 18 -19 20 -19 45 -6 22 12 27 78
7 98 -18 18 -46 14 -58 -7z m45 -41 c0 -18 -5 -35 -12 -37 -14 -5 -28 40 -19
63 10 27 31 9 31 -26z"/>
<path d="M2661 1111 c-15 -10 -8 -41 9 -41 15 0 25 29 14 40 -5 5 -15 5 -23 1z"/>
<path d="M3050 1106 c-13 -17 -6 -36 15 -36 19 0 26 27 11 39 -10 8 -17 7 -26
-3z"/>
<path d="M3446 1113 c-3 -4 -6 -15 -6 -25 0 -24 33 -21 38 3 3 17 -21 33 -32
22z"/>
<path d="M4231 1106 c-14 -17 -7 -36 14 -36 22 0 29 20 13 36 -13 13 -16 13
-27 0z"/>
<path d="M4623 1104 c-7 -19 11 -39 26 -30 16 10 13 33 -4 40 -9 3 -18 -1 -22
-10z"/>
<path d="M5411 1106 c-14 -17 -7 -36 14 -36 22 0 29 20 13 36 -13 13 -16 13
-27 0z"/>
<path d="M5801 1106 c-8 -10 -7 -17 3 -26 17 -13 36 -6 36 15 0 19 -27 26 -39
11z"/>
<path d="M6201 1111 c-15 -10 -8 -41 9 -41 15 0 25 29 14 40 -5 5 -15 5 -23 1z"/>
<path d="M6591 1106 c-14 -17 -7 -36 14 -36 22 0 29 20 13 36 -13 13 -16 13
-27 0z"/>
<path d="M7381 1110 c-17 -10 -7 -40 14 -40 8 0 15 9 15 19 0 24 -12 32 -29
21z"/>
<path d="M2740 1095 c0 -8 5 -15 10 -15 6 0 10 7 10 15 0 8 -4 15 -10 15 -5 0
-10 -7 -10 -15z"/>
<path d="M2817 1103 c-12 -11 -8 -23 8 -23 8 0 15 7 15 15 0 16 -12 20 -23 8z"/>
<path d="M2896 1103 c-11 -11 -6 -23 9 -23 8 0 15 4 15 9 0 13 -16 22 -24 14z"/>
<path d="M2976 1103 c-11 -11 -6 -23 9 -23 8 0 15 4 15 9 0 13 -16 22 -24 14z"/>
<path d="M3130 1095 c0 -9 5 -15 11 -13 6 2 11 8 11 13 0 5 -5 11 -11 13 -6 2
-11 -4 -11 -13z"/>
<path d="M3210 1095 c0 -9 5 -15 11 -13 6 2 11 8 11 13 0 5 -5 11 -11 13 -6 2
-11 -4 -11 -13z"/>
<path d="M3290 1095 c0 -8 5 -15 10 -15 6 0 10 7 10 15 0 8 -4 15 -10 15 -5 0
-10 -7 -10 -15z"/>
<path d="M3367 1104 c-8 -8 1 -24 14 -24 5 0 9 7 9 15 0 15 -12 20 -23 9z"/>
<path d="M3526 1103 c-11 -11 -6 -23 9 -23 8 0 15 4 15 9 0 13 -16 22 -24 14z"/>
<path d="M3606 1103 c-11 -11 -6 -23 9 -23 8 0 15 4 15 9 0 13 -16 22 -24 14z"/>
<path d="M3685 1099 c-10 -15 3 -25 16 -12 7 7 7 13 1 17 -6 3 -14 1 -17 -5z"/>
<path d="M3760 1095 c0 -9 5 -15 11 -13 6 2 11 8 11 13 0 5 -5 11 -11 13 -6 2
-11 -4 -11 -13z"/>
<path d="M3832 1093 c2 -10 10 -18 18 -18 8 0 16 8 18 18 2 12 -3 17 -18 17
-15 0 -20 -5 -18 -17z"/>
<path d="M3920 1095 c0 -8 5 -15 10 -15 6 0 10 7 10 15 0 8 -4 15 -10 15 -5 0
-10 -7 -10 -15z"/>
<path d="M3996 1102 c-3 -6 -1 -14 5 -17 15 -10 25 3 12 16 -7 7 -13 7 -17 1z"/>
<path d="M4076 1103 c-11 -11 -6 -23 9 -23 8 0 15 4 15 9 0 13 -16 22 -24 14z"/>
<path d="M4156 1103 c-11 -11 -6 -23 9 -23 8 0 15 4 15 9 0 13 -16 22 -24 14z"/>
<path d="M4315 1099 c-10 -15 3 -25 16 -12 7 7 7 13 1 17 -6 3 -14 1 -17 -5z"/>
<path d="M4390 1095 c0 -9 5 -15 11 -13 6 2 11 8 11 13 0 5 -5 11 -11 13 -6 2
-11 -4 -11 -13z"/>
<path d="M4470 1095 c0 -8 5 -15 10 -15 6 0 10 7 10 15 0 8 -4 15 -10 15 -5 0
-10 -7 -10 -15z"/>
<path d="M4547 1103 c-12 -11 -8 -23 8 -23 8 0 15 7 15 15 0 16 -12 20 -23 8z"/>
<path d="M4706 1103 c-11 -11 -6 -23 9 -23 8 0 15 4 15 9 0 13 -16 22 -24 14z"/>
<path d="M4786 1103 c-11 -11 -6 -23 9 -23 8 0 15 4 15 9 0 13 -16 22 -24 14z"/>
<path d="M4866 1103 c-11 -11 -6 -23 9 -23 8 0 15 4 15 9 0 13 -16 22 -24 14z"/>
<path d="M5176 1102 c-3 -6 -1 -14 5 -17 15 -10 25 3 12 16 -7 7 -13 7 -17 1z"/>
<path d="M5257 1104 c-8 -8 1 -24 14 -24 5 0 9 7 9 15 0 15 -12 20 -23 9z"/>
<path d="M5336 1103 c-11 -11 -6 -23 9 -23 8 0 15 4 15 9 0 13 -16 22 -24 14z"/>
<path d="M5496 1103 c-11 -11 -6 -23 9 -23 8 0 15 4 15 9 0 13 -16 22 -24 14z"/>
<path d="M5570 1095 c0 -9 5 -15 11 -13 6 2 11 8 11 13 0 5 -5 11 -11 13 -6 2
-11 -4 -11 -13z"/>
<path d="M5650 1095 c0 -8 5 -15 10 -15 6 0 10 7 10 15 0 8 -4 15 -10 15 -5 0
-10 -7 -10 -15z"/>
<path d="M5727 1104 c-8 -8 1 -24 14 -24 5 0 9 7 9 15 0 15 -12 20 -23 9z"/>
<path d="M5887 1104 c-8 -8 1 -24 14 -24 5 0 9 7 9 15 0 15 -12 20 -23 9z"/>
<path d="M5966 1103 c-11 -11 -6 -23 9 -23 8 0 15 4 15 9 0 13 -16 22 -24 14z"/>
<path d="M6046 1103 c-11 -11 -6 -23 9 -23 8 0 15 4 15 9 0 13 -16 22 -24 14z"/>
<path d="M6120 1095 c0 -9 5 -15 11 -13 6 2 11 8 11 13 0 5 -5 11 -11 13 -6 2
-11 -4 -11 -13z"/>
<path d="M6280 1095 c0 -8 5 -15 10 -15 6 0 10 7 10 15 0 8 -4 15 -10 15 -5 0
-10 -7 -10 -15z"/>
<path d="M6357 1104 c-8 -8 1 -24 14 -24 5 0 9 7 9 15 0 15 -12 20 -23 9z"/>
<path d="M6436 1102 c-3 -6 -1 -14 5 -17 15 -10 25 3 12 16 -7 7 -13 7 -17 1z"/>
<path d="M6516 1103 c-11 -11 -6 -23 9 -23 8 0 15 4 15 9 0 13 -16 22 -24 14z"/>
<path d="M6670 1096 c0 -9 7 -16 16 -16 9 0 14 5 12 12 -6 18 -28 21 -28 4z"/>
<path d="M6755 1099 c-10 -15 3 -25 16 -12 7 7 7 13 1 17 -6 3 -14 1 -17 -5z"/>
<path d="M6830 1095 c0 -9 5 -15 11 -13 6 2 11 8 11 13 0 5 -5 11 -11 13 -6 2
-11 -4 -11 -13z"/>
<path d="M6910 1095 c0 -8 5 -15 10 -15 6 0 10 7 10 15 0 8 -4 15 -10 15 -5 0
-10 -7 -10 -15z"/>
<path d="M6980 1089 c0 -14 5 -19 17 -17 26 5 29 38 4 38 -15 0 -21 -6 -21
-21z"/>
<path d="M7066 1103 c-11 -11 -6 -23 9 -23 8 0 15 4 15 9 0 13 -16 22 -24 14z"/>
<path d="M7146 1103 c-11 -11 -6 -23 9 -23 8 0 15 4 15 9 0 13 -16 22 -24 14z"/>
<path d="M7226 1103 c-11 -11 -6 -23 9 -23 8 0 15 4 15 9 0 13 -16 22 -24 14z"/>
<path d="M7300 1096 c0 -9 7 -16 16 -16 9 0 14 5 12 12 -6 18 -28 21 -28 4z"/>
</g>
</svg>
